*
*
G04 PADS 9.3 Build Number: 433611 generated Gerber (RS-274-X) file*
G04 PC Version=2.1*
*
%IN "K51 REV2.pcb"*%
*
%MOIN*%
*
%FSLAX35Y35*%
*
*
*
*
G04 PC Standard Apertures*
*
*
G04 Thermal Relief Aperture macro.*
%AMTER*
1,1,$1,0,0*
1,0,$1-$2,0,0*
21,0,$3,$4,0,0,45*
21,0,$3,$4,0,0,135*
%
*
*
G04 Annular Aperture macro.*
%AMANN*
1,1,$1,0,0*
1,0,$2,0,0*
%
*
*
G04 Odd Aperture macro.*
%AMODD*
1,1,$1,0,0*
1,0,$1-0.005,0,0*
%
*
*
G04 PC Custom Aperture Macros*
*
*
*
*
*
*
G04 PC Aperture Table*
*
%ADD136C,0.00394*%
%ADD137C,0.001*%
%ADD222R,0.03583X0.03583*%
%ADD262C,0.00787*%
%ADD506C,0.01614*%
%ADD544R,0.03583X0.04213*%
%ADD555R,0.03976X0.03583*%
%ADD556R,0.03583X0.03976*%
%ADD562R,0.0437X0.05945*%
%ADD564C,0.02402*%
%ADD565O,0.06339X0.03583*%
%ADD566R,0.06339X0.03583*%
%ADD568R,0.03583X0.06339*%
%ADD569R,0.06339X0.0437*%
%ADD571O,0.04764X0.02795*%
%ADD572R,0.04764X0.02795*%
%ADD574C,0.03189*%
%ADD577R,0.06339X0.16181*%
%ADD582R,0.02795X0.02795*%
%ADD586R,0.01811X0.03189*%
%ADD587R,0.03189X0.05945*%
*
*
*
*
G04 PC Circuitry*
G04 Layer Name K51 REV2.pcb - circuitry*
%LPD*%
*
*
G04 PC Custom Flashes*
G04 Layer Name K51 REV2.pcb - flashes*
%LPD*%
*
*
G04 PC Circuitry*
G04 Layer Name K51 REV2.pcb - circuitry*
%LPD*%
*
G54D136*
G01X1062945Y1043906D02*
Y849063D01*
X1050946Y812066D02*
G75*
G03X1062945Y849106I-51169J37040D01*
G01X1050909Y812016D02*
X1024382D01*
Y804902*
X975563*
Y812012*
X949020*
X936965Y849083D02*
G03X949002Y812036I62692J-109D01*
G01X936965Y849035D02*
Y1043906D01*
X1062945*
X1054921Y990157D02*
G03X1054921I-2165J0D01*
G01X1004331Y1000000D02*
G03X1004331I-4331J0D01*
G01X949409Y990157D02*
G03X949409I-2165J0D01*
G01X1014961Y894331D02*
G03X1014961I-14961J0D01*
G01X1008071Y819528D02*
G03X1008071I-8071J0D01*
G54D137*
G54D222*
G01X996850Y852756D03*
X1003150D03*
X996850Y847638D03*
X1003150D03*
G54D262*
X1048283Y852580D02*
X1060619Y867442D01*
X1061861Y866411*
X1049525Y851549*
X1048283Y852580*
X1048425Y852462D02*
Y852751D01*
X1048819Y852135D02*
Y853225D01*
X1049213Y851808D02*
Y853700D01*
X1049606Y851647D02*
Y854174D01*
X1050000Y852121D02*
Y854648D01*
X1050394Y852595D02*
Y855123D01*
X1050787Y853070D02*
Y855597D01*
X1051181Y853544D02*
Y856071D01*
X1051575Y854018D02*
Y856546D01*
X1051969Y854493D02*
Y857020D01*
X1052362Y854967D02*
Y857494D01*
X1052756Y855441D02*
Y857969D01*
X1053150Y855916D02*
Y858443D01*
X1053543Y856390D02*
Y858917D01*
X1053937Y856864D02*
Y859392D01*
X1054331Y857338D02*
Y859866D01*
X1054724Y857813D02*
Y860340D01*
X1055118Y858287D02*
Y860814D01*
X1055512Y858761D02*
Y861289D01*
X1055906Y859236D02*
Y861763D01*
X1056299Y859710D02*
Y862237D01*
X1056693Y860184D02*
Y862712D01*
X1057087Y860659D02*
Y863186D01*
X1057480Y861133D02*
Y863660D01*
X1057874Y861607D02*
Y864135D01*
X1058268Y862082D02*
Y864609D01*
X1058661Y862556D02*
Y865083D01*
X1059055Y863030D02*
Y865558D01*
X1059449Y863505D02*
Y866032D01*
X1059843Y863979D02*
Y866506D01*
X1060236Y864453D02*
Y866981D01*
X1060630Y864928D02*
Y867433D01*
X1061024Y865402D02*
Y867106D01*
X1061417Y865876D02*
Y866780D01*
X1061811Y866350D02*
Y866453D01*
X1040283Y859209D02*
X1041314Y860452D01*
X1050554Y852782*
X1049523Y851540*
X1040283Y859209*
X1040551Y858987D02*
Y859532D01*
X1040945Y858660D02*
Y860006D01*
X1041339Y858334D02*
Y860431D01*
X1041732Y858007D02*
Y860105D01*
X1042126Y857680D02*
Y859778D01*
X1042520Y857353D02*
Y859451D01*
X1042913Y857027D02*
Y859124D01*
X1043307Y856700D02*
Y858798D01*
X1043701Y856373D02*
Y858471D01*
X1044094Y856046D02*
Y858144D01*
X1044488Y855719D02*
Y857817D01*
X1044882Y855393D02*
Y857490D01*
X1045276Y855066D02*
Y857164D01*
X1045669Y854739D02*
Y856837D01*
X1046063Y854412D02*
Y856510D01*
X1046457Y854085D02*
Y856183D01*
X1046850Y853759D02*
Y855856D01*
X1047244Y853432D02*
Y855530D01*
X1047638Y853105D02*
Y855203D01*
X1048031Y852778D02*
Y854876D01*
X1048425Y852451D02*
Y854549D01*
X1048819Y852125D02*
Y854223D01*
X1049213Y851798D02*
Y853896D01*
X1049606Y851641D02*
Y853569D01*
X1050000Y852115D02*
Y853242D01*
X1050394Y852589D02*
Y852915D01*
X1036463Y838333D02*
X1043028Y846243D01*
X1044270Y845212*
X1037705Y837302*
X1036463Y838333*
X1036614Y838207D02*
Y838515D01*
X1037008Y837881D02*
Y838990D01*
X1037402Y837554D02*
Y839464D01*
X1037795Y837411D02*
Y839938D01*
X1038189Y837885D02*
Y840413D01*
X1038583Y838360D02*
Y840887D01*
X1038976Y838834D02*
Y841361D01*
X1039370Y839308D02*
Y841836D01*
X1039764Y839783D02*
Y842310D01*
X1040157Y840257D02*
Y842784D01*
X1040551Y840731D02*
Y843259D01*
X1040945Y841206D02*
Y843733D01*
X1041339Y841680D02*
Y844207D01*
X1041732Y842154D02*
Y844682D01*
X1042126Y842629D02*
Y845156D01*
X1042520Y843103D02*
Y845630D01*
X1042913Y843577D02*
Y846105D01*
X1043307Y844051D02*
Y846011D01*
X1043701Y844526D02*
Y845685D01*
X1044094Y845000D02*
Y845358D01*
X1033997Y851636D02*
X1035031Y852881D01*
X1044270Y845212*
X1043237Y843967*
X1033997Y851636*
X1034252Y851424D02*
Y851943D01*
X1034646Y851098D02*
Y852417D01*
X1035039Y850771D02*
Y852874D01*
X1035433Y850444D02*
Y852547D01*
X1035827Y850117D02*
Y852220D01*
X1036220Y849790D02*
Y851893D01*
X1036614Y849464D02*
Y851567D01*
X1037008Y849137D02*
Y851240D01*
X1037402Y848810D02*
Y850913D01*
X1037795Y848483D02*
Y850586D01*
X1038189Y848156D02*
Y850259D01*
X1038583Y847830D02*
Y849933D01*
X1038976Y847503D02*
Y849606D01*
X1039370Y847176D02*
Y849279D01*
X1039764Y846849D02*
Y848952D01*
X1040157Y846523D02*
Y848626D01*
X1040551Y846196D02*
Y848299D01*
X1040945Y845869D02*
Y847972D01*
X1041339Y845542D02*
Y847645D01*
X1041732Y845215D02*
Y847318D01*
X1042126Y844889D02*
Y846992D01*
X1042520Y844562D02*
Y846665D01*
X1042913Y844235D02*
Y846338D01*
X1043307Y844052D02*
Y846011D01*
X1043701Y844526D02*
Y845684D01*
X1044094Y845000D02*
Y845358D01*
X1028465Y844971D02*
X1029496Y846213D01*
X1038736Y838544*
X1037705Y837302*
X1028465Y844971*
X1028740Y844743D02*
Y845303D01*
X1029134Y844416D02*
Y845777D01*
X1029528Y844089D02*
Y846187D01*
X1029921Y843763D02*
Y845861D01*
X1030315Y843436D02*
Y845534D01*
X1030709Y843109D02*
Y845207D01*
X1031102Y842782D02*
Y844880D01*
X1031496Y842455D02*
Y844553D01*
X1031890Y842129D02*
Y844227D01*
X1032283Y841802D02*
Y843900D01*
X1032677Y841475D02*
Y843573D01*
X1033071Y841148D02*
Y843246D01*
X1033465Y840821D02*
Y842919D01*
X1033858Y840495D02*
Y842593D01*
X1034252Y840168D02*
Y842266D01*
X1034646Y839841D02*
Y841939D01*
X1035039Y839514D02*
Y841612D01*
X1035433Y839188D02*
Y841285D01*
X1035827Y838861D02*
Y840959D01*
X1036220Y838534D02*
Y840632D01*
X1036614Y838207D02*
Y840305D01*
X1037008Y837880D02*
Y839978D01*
X1037402Y837554D02*
Y839652D01*
X1037795Y837411D02*
Y839325D01*
X1038189Y837885D02*
Y838998D01*
X1038583Y838360D02*
Y838671D01*
X1024648Y824092D02*
X1031210Y831999D01*
X1032450Y830971*
X1025887Y823064*
X1024648Y824092*
X1024803Y823963D02*
Y824280D01*
X1025197Y823636D02*
Y824754D01*
X1025591Y823310D02*
Y825228D01*
X1025984Y823181D02*
Y825703D01*
X1026378Y823656D02*
Y826177D01*
X1026772Y824130D02*
Y826651D01*
X1027165Y824604D02*
Y827126D01*
X1027559Y825079D02*
Y827600D01*
X1027953Y825553D02*
Y828074D01*
X1028346Y826027D02*
Y828549D01*
X1028740Y826502D02*
Y829023D01*
X1029134Y826976D02*
Y829497D01*
X1029528Y827450D02*
Y829972D01*
X1029921Y827925D02*
Y830446D01*
X1030315Y828399D02*
Y830920D01*
X1030709Y828873D02*
Y831395D01*
X1031102Y829348D02*
Y831869D01*
X1031496Y829822D02*
Y831762D01*
X1031890Y830296D02*
Y831435D01*
X1032283Y830770D02*
Y831108D01*
X1022179Y837398D02*
X1023210Y838640D01*
X1032450Y830971*
X1031419Y829728*
X1022179Y837398*
X1022441Y837180D02*
Y837714D01*
X1022835Y836853D02*
Y838188D01*
X1023228Y836527D02*
Y838625D01*
X1023622Y836200D02*
Y838298D01*
X1024016Y835873D02*
Y837971D01*
X1024409Y835546D02*
Y837644D01*
X1024803Y835219D02*
Y837317D01*
X1025197Y834893D02*
Y836991D01*
X1025591Y834566D02*
Y836664D01*
X1025984Y834239D02*
Y836337D01*
X1026378Y833912D02*
Y836010D01*
X1026772Y833586D02*
Y835683D01*
X1027165Y833259D02*
Y835357D01*
X1027559Y832932D02*
Y835030D01*
X1027953Y832605D02*
Y834703D01*
X1028346Y832278D02*
Y834376D01*
X1028740Y831952D02*
Y834050D01*
X1029134Y831625D02*
Y833723D01*
X1029528Y831298D02*
Y833396D01*
X1029921Y830971D02*
Y833069D01*
X1030315Y830644D02*
Y832742D01*
X1030709Y830318D02*
Y832416D01*
X1031102Y829991D02*
Y832089D01*
X1031496Y829822D02*
Y831762D01*
X1031890Y830296D02*
Y831435D01*
X1032283Y830770D02*
Y831108D01*
X1043746Y877313D02*
X1045781Y879764D01*
X1061861Y866411*
X1059829Y863963*
X1043746Y877313*
X1044094Y877024D02*
Y877732D01*
X1044488Y876697D02*
Y878206D01*
X1044882Y876370D02*
Y878681D01*
X1045276Y876044D02*
Y879155D01*
X1045669Y875717D02*
Y879629D01*
X1046063Y875390D02*
Y879529D01*
X1046457Y875063D02*
Y879202D01*
X1046850Y874736D02*
Y878875D01*
X1047244Y874410D02*
Y878548D01*
X1047638Y874083D02*
Y878222D01*
X1048031Y873756D02*
Y877895D01*
X1048425Y873429D02*
Y877568D01*
X1048819Y873102D02*
Y877241D01*
X1049213Y872776D02*
Y876914D01*
X1049606Y872449D02*
Y876587D01*
X1050000Y872122D02*
Y876260D01*
X1050394Y871795D02*
Y875933D01*
X1050787Y871468D02*
Y875606D01*
X1051181Y871142D02*
Y875279D01*
X1051575Y870815D02*
Y874952D01*
X1051969Y870488D02*
Y874626D01*
X1052362Y870161D02*
Y874299D01*
X1052756Y869835D02*
Y873972D01*
X1053150Y869508D02*
Y873645D01*
X1053543Y869181D02*
Y873318D01*
X1053937Y868854D02*
Y872991D01*
X1054331Y868527D02*
Y872664D01*
X1054724Y868201D02*
Y872337D01*
X1055118Y867874D02*
Y872010D01*
X1055512Y867547D02*
Y871683D01*
X1055906Y867220D02*
Y871356D01*
X1056299Y866893D02*
Y871030D01*
X1056693Y866567D02*
Y870703D01*
X1057087Y866240D02*
Y870376D01*
X1057480Y865913D02*
Y870049D01*
X1057874Y865586D02*
Y869722D01*
X1058268Y865260D02*
Y869395D01*
X1058661Y864933D02*
Y869068D01*
X1059055Y864606D02*
Y868741D01*
X1059449Y864279D02*
Y868414D01*
X1059843Y863979D02*
Y868087D01*
X1060236Y864453D02*
Y867760D01*
X1060630Y864928D02*
Y867434D01*
X1061024Y865402D02*
Y867107D01*
X1061417Y865876D02*
Y866780D01*
X1061811Y866350D02*
Y866453D01*
X1038414Y872017D02*
X1039448Y873262D01*
X1055331Y860079*
X1054298Y858833*
X1038414Y872017*
X1038583Y871877D02*
Y872220D01*
X1038976Y871551D02*
Y872694D01*
X1039370Y871224D02*
Y873168D01*
X1039764Y870897D02*
Y873000D01*
X1040157Y870570D02*
Y872673D01*
X1040551Y870243D02*
Y872347D01*
X1040945Y869917D02*
Y872020D01*
X1041339Y869590D02*
Y871693D01*
X1041732Y869263D02*
Y871366D01*
X1042126Y868936D02*
Y871039D01*
X1042520Y868610D02*
Y870713D01*
X1042913Y868283D02*
Y870386D01*
X1043307Y867956D02*
Y870059D01*
X1043701Y867629D02*
Y869732D01*
X1044094Y867302D02*
Y869405D01*
X1044488Y866976D02*
Y869079D01*
X1044882Y866649D02*
Y868752D01*
X1045276Y866322D02*
Y868425D01*
X1045669Y865995D02*
Y868098D01*
X1046063Y865668D02*
Y867772D01*
X1046457Y865342D02*
Y867445D01*
X1046850Y865015D02*
Y867118D01*
X1047244Y864688D02*
Y866791D01*
X1047638Y864361D02*
Y866464D01*
X1048031Y864035D02*
Y866138D01*
X1048425Y863708D02*
Y865811D01*
X1048819Y863381D02*
Y865484D01*
X1049213Y863054D02*
Y865157D01*
X1049606Y862727D02*
Y864830D01*
X1050000Y862401D02*
Y864504D01*
X1050394Y862074D02*
Y864177D01*
X1050787Y861747D02*
Y863850D01*
X1051181Y861420D02*
Y863523D01*
X1051575Y861093D02*
Y863196D01*
X1051969Y860767D02*
Y862870D01*
X1052362Y860440D02*
Y862543D01*
X1052756Y860113D02*
Y862216D01*
X1053150Y859786D02*
Y861889D01*
X1053543Y859460D02*
Y861563D01*
X1053937Y859133D02*
Y861236D01*
X1054331Y858873D02*
Y860909D01*
X1054724Y859348D02*
Y860582D01*
X1055118Y859822D02*
Y860255D01*
X1012709Y834002D02*
X1013740Y835244D01*
X1026918Y824306*
X1025887Y823064*
X1012709Y834002*
X1012992Y833767D02*
Y834344D01*
X1013386Y833440D02*
Y834818D01*
X1013780Y833113D02*
Y835211D01*
X1014173Y832787D02*
Y834884D01*
X1014567Y832460D02*
Y834557D01*
X1014961Y832133D02*
Y834231D01*
X1015354Y831806D02*
Y833904D01*
X1015748Y831479D02*
Y833577D01*
X1016142Y831153D02*
Y833250D01*
X1016535Y830826D02*
Y832924D01*
X1016929Y830499D02*
Y832597D01*
X1017323Y830172D02*
Y832270D01*
X1017717Y829845D02*
Y831943D01*
X1018110Y829519D02*
Y831616D01*
X1018504Y829192D02*
Y831290D01*
X1018898Y828865D02*
Y830963D01*
X1019291Y828538D02*
Y830636D01*
X1019685Y828212D02*
Y830309D01*
X1020079Y827885D02*
Y829982D01*
X1020472Y827558D02*
Y829656D01*
X1020866Y827231D02*
Y829329D01*
X1021260Y826904D02*
Y829002D01*
X1021654Y826578D02*
Y828675D01*
X1022047Y826251D02*
Y828349D01*
X1022441Y825924D02*
Y828022D01*
X1022835Y825597D02*
Y827695D01*
X1023228Y825270D02*
Y827368D01*
X1023622Y824944D02*
Y827041D01*
X1024016Y824617D02*
Y826715D01*
X1024409Y824290D02*
Y826388D01*
X1024803Y823963D02*
Y826061D01*
X1025197Y823637D02*
Y825734D01*
X1025591Y823310D02*
Y825407D01*
X1025984Y823181D02*
Y825081D01*
X1026378Y823656D02*
Y824754D01*
X1026772Y824130D02*
Y824427D01*
X1022179Y837398D02*
X1028744Y845308D01*
X1029986Y844277*
X1023421Y836367*
X1022179Y837398*
X1022441Y837180D02*
Y837714D01*
X1022835Y836854D02*
Y838188D01*
X1023228Y836527D02*
Y838662D01*
X1023622Y836609D02*
Y839137D01*
X1024016Y837084D02*
Y839611D01*
X1024409Y837558D02*
Y840085D01*
X1024803Y838032D02*
Y840560D01*
X1025197Y838507D02*
Y841034D01*
X1025591Y838981D02*
Y841508D01*
X1025984Y839455D02*
Y841982D01*
X1026378Y839929D02*
Y842457D01*
X1026772Y840404D02*
Y842931D01*
X1027165Y840878D02*
Y843405D01*
X1027559Y841352D02*
Y843880D01*
X1027953Y841827D02*
Y844354D01*
X1028346Y842301D02*
Y844828D01*
X1028740Y842775D02*
Y845303D01*
X1029134Y843250D02*
Y844984D01*
X1029528Y843724D02*
Y844658D01*
X1029921Y844198D02*
Y844331D01*
X1033997Y851636D02*
X1041314Y860452D01*
X1042556Y859421*
X1035239Y850605*
X1033997Y851636*
X1034252Y851424D02*
Y851943D01*
X1034646Y851098D02*
Y852417D01*
X1035039Y850771D02*
Y852892D01*
X1035433Y850839D02*
Y853366D01*
X1035827Y851313D02*
Y853840D01*
X1036220Y851787D02*
Y854315D01*
X1036614Y852262D02*
Y854789D01*
X1037008Y852736D02*
Y855263D01*
X1037402Y853210D02*
Y855738D01*
X1037795Y853685D02*
Y856212D01*
X1038189Y854159D02*
Y856686D01*
X1038583Y854633D02*
Y857160D01*
X1038976Y855108D02*
Y857635D01*
X1039370Y855582D02*
Y858109D01*
X1039764Y856056D02*
Y858583D01*
X1040157Y856531D02*
Y859058D01*
X1040551Y857005D02*
Y859532D01*
X1040945Y857479D02*
Y860006D01*
X1041339Y857953D02*
Y860432D01*
X1041732Y858428D02*
Y860105D01*
X1042126Y858902D02*
Y859778D01*
X1042520Y859376D02*
Y859451D01*
G54D506*
X1039404Y872254D03*
G54D544*
X957087Y908465D03*
X950787D03*
X957087Y913386D03*
X950787D03*
X957087Y918307D03*
X950787D03*
X957087Y903346D03*
X950787D03*
G54D555*
X1016339Y1024016D03*
X1020079Y1016142D03*
X1023819Y1024016D03*
X1011220Y1023622D03*
X1007480Y1031496D03*
X1003740Y1023622D03*
G54D556*
X1033071Y1033268D03*
X1025197Y1029528D03*
X1033071Y1025787D03*
X960630Y1021457D03*
X968504Y1025197D03*
X960630Y1028937D03*
Y1009252D03*
X968504Y1012992D03*
X960630Y1016732D03*
X981102Y1028937D03*
X973228Y1025197D03*
X981102Y1021457D03*
Y1016732D03*
X973228Y1012992D03*
X981102Y1009252D03*
G54D562*
X1047244Y1032283D03*
X1039370D03*
X1047244Y1025591D03*
X1039370D03*
X1047244Y1012205D03*
X1039370D03*
X1047244Y1018898D03*
X1039370D03*
X961811Y1002362D03*
X953937D03*
Y994488D03*
X961811D03*
G54D564*
X1045669Y877953D03*
X941339Y953150D03*
G54D565*
X1012598Y915591D03*
G54D566*
Y920591D03*
Y925591D03*
Y930591D03*
Y935591D03*
Y940591D03*
Y945591D03*
Y950591D03*
X1057874D03*
Y945591D03*
Y940591D03*
Y935591D03*
Y930591D03*
Y925591D03*
Y920591D03*
Y915591D03*
G54D568*
X1017756Y955709D03*
X1022756D03*
X1027756D03*
X1032756D03*
X1037756D03*
X1042756D03*
X1047756D03*
X1052756D03*
Y910433D03*
X1047756D03*
X1042756D03*
X1037756D03*
X1032756D03*
X1027756D03*
X1022756D03*
X1017756D03*
G54D569*
X1011811Y873244D03*
Y859465D03*
X988189D03*
Y873244D03*
G54D571*
X953543Y980906D03*
X970866D03*
G54D572*
X953543Y984646D03*
Y988386D03*
X963780D03*
Y980906D03*
X970866Y984646D03*
Y988386D03*
X981102D03*
Y980906D03*
G54D574*
X980709Y815354D03*
G54D577*
X968504Y949016D03*
Y915551D03*
G54D582*
X1031496Y889764D03*
Y893701D03*
X1003937Y1015748D03*
X1000000D03*
X1027559Y897638D03*
X1031496D03*
X940354Y919094D03*
X944291D03*
X940354Y915551D03*
X944291D03*
X940354Y912008D03*
X944291D03*
X1031496Y885827D03*
X1027559D03*
X1053937Y965354D03*
X1057874D03*
X1053937Y961811D03*
X1057874D03*
X978346Y977165D03*
X982283D03*
X990157Y978740D03*
X986220D03*
X967323Y1004331D03*
X971260D03*
X966929Y977165D03*
X962992D03*
X952362Y1025984D03*
X956299D03*
X985433Y1018898D03*
X989370D03*
X985433Y1015354D03*
X989370D03*
X952362Y1018898D03*
X956299D03*
X952362Y1015354D03*
X956299D03*
X989370Y1011417D03*
X985433D03*
X986220Y989764D03*
X990157D03*
X1055906Y1030315D03*
X1051969D03*
X985433Y1025984D03*
X989370D03*
X1055906Y1033858D03*
X1051969D03*
X1055906Y1026772D03*
X1051969D03*
X1029528Y1017717D03*
X1033465D03*
Y1021260D03*
X1029528D03*
X1016535Y1028346D03*
X1020472D03*
X989370Y1007874D03*
X985433D03*
X990157Y986220D03*
X986220D03*
X988189Y851969D03*
X992126D03*
X1011811Y1015748D03*
X1007874D03*
Y1019291D03*
X1011811D03*
X1003937D03*
X1000000D03*
X971260Y997244D03*
X967323D03*
X971260Y992913D03*
X967323D03*
X985433Y1022441D03*
X989370D03*
X985433Y1029528D03*
X989370D03*
X956299Y1022441D03*
X952362D03*
Y1029528D03*
X956299D03*
X981496Y996850D03*
X977559D03*
X967323Y1000787D03*
X971260D03*
X988189Y848425D03*
X992126D03*
X986220Y982283D03*
X990157D03*
X981496Y993307D03*
X977559D03*
Y1000394D03*
X981496D03*
G54D586*
X985236Y1003740D03*
X987795D03*
X990354D03*
Y993898D03*
X987795D03*
X985236D03*
G54D587*
X956335Y925098D03*
X951335D03*
X946335D03*
X941335D03*
Y946555D03*
X946335D03*
X951335D03*
X956335D03*
G74*
X0Y0D02*
M02*
