*
*
G04 PADS 9.3 Build Number: 433611 generated Gerber (RS-274-X) file*
G04 PC Version=2.1*
*
%IN "K51 REV2.pcb"*%
*
%MOIN*%
*
%FSLAX35Y35*%
*
*
*
*
G04 PC Standard Apertures*
*
*
G04 Thermal Relief Aperture macro.*
%AMTER*
1,1,$1,0,0*
1,0,$1-$2,0,0*
21,0,$3,$4,0,0,45*
21,0,$3,$4,0,0,135*
%
*
*
G04 Annular Aperture macro.*
%AMANN*
1,1,$1,0,0*
1,0,$2,0,0*
%
*
*
G04 Odd Aperture macro.*
%AMODD*
1,1,$1,0,0*
1,0,$1-0.005,0,0*
%
*
*
G04 PC Custom Aperture Macros*
*
*
*
*
*
*
G04 PC Aperture Table*
*
%ADD011C,0.01*%
%ADD136C,0.00394*%
%ADD137C,0.001*%
*
*
*
*
G04 PC Circuitry*
G04 Layer Name K51 REV2.pcb - circuitry*
%LPD*%
*
*
G04 PC Custom Flashes*
G04 Layer Name K51 REV2.pcb - flashes*
%LPD*%
*
*
G04 PC Circuitry*
G04 Layer Name K51 REV2.pcb - circuitry*
%LPD*%
*
G54D11*
G01X971591Y849213D02*
X979591D01*
X975591Y845213D02*
Y853213D01*
X972772Y895669D02*
X980772D01*
X976772Y891669D02*
Y899669D01*
X973165Y857480D02*
X981165D01*
X977165Y853480D02*
Y861480D01*
X969228Y860630D02*
X977228D01*
X973228Y856630D02*
Y864630D01*
X973165Y866929D02*
X981165D01*
X977165Y862929D02*
Y870929D01*
X969228Y866929D02*
X977228D01*
X973228Y862929D02*
Y870929D01*
X969228Y873228D02*
X977228D01*
X973228Y869228D02*
Y877228D01*
X973165Y873228D02*
X981165D01*
X977165Y869228D02*
Y877228D01*
X973165Y879528D02*
X981165D01*
X977165Y875528D02*
Y883528D01*
X969228Y879528D02*
X977228D01*
X973228Y875528D02*
Y883528D01*
X969228Y887402D02*
X977228D01*
X973228Y883402D02*
Y891402D01*
X969622Y898425D02*
X977622D01*
X973622Y894425D02*
Y902425D01*
X969622Y903150D02*
X977622D01*
X973622Y899150D02*
Y907150D01*
X972772Y900000D02*
X980772D01*
X976772Y896000D02*
Y904000D01*
X957417Y902362D02*
X965417D01*
X961417Y898362D02*
Y906362D01*
X1013323Y870472D02*
X1021323D01*
X1017323Y866472D02*
Y874472D01*
X1005055Y863386D02*
X1013055D01*
X1009055Y859386D02*
Y867386D01*
X1005055Y867717D02*
X1013055D01*
X1009055Y863717D02*
Y871717D01*
X995606Y867717D02*
X1003606D01*
X999606Y863717D02*
Y871717D01*
X995606Y863386D02*
X1003606D01*
X999606Y859386D02*
Y867386D01*
X984976Y863780D02*
X992976D01*
X988976Y859780D02*
Y867780D01*
X984976Y867717D02*
X992976D01*
X988976Y863717D02*
Y871717D01*
X998362Y876378D02*
X1006362D01*
X1002362Y872378D02*
Y880378D01*
X992850Y876378D02*
X1000850D01*
X996850Y872378D02*
Y880378D01*
X1004268Y852362D02*
X1012268D01*
X1008268Y848362D02*
Y856362D01*
X1011354Y852362D02*
X1019354D01*
X1015354Y848362D02*
Y856362D01*
X1007024Y847638D02*
X1015024D01*
X1011024Y843638D02*
Y851638D01*
X1003480Y843307D02*
X1011480D01*
X1007480Y839307D02*
Y847307D01*
X997181Y843307D02*
X1005181D01*
X1001181Y839307D02*
Y847307D01*
X990488Y843307D02*
X998488D01*
X994488Y839307D02*
Y847307D01*
X983402Y843307D02*
X991402D01*
X987402Y839307D02*
Y847307D01*
X1040488Y893701D02*
X1048488D01*
X1044488Y889701D02*
Y897701D01*
X1036945Y887795D02*
X1044945D01*
X1040945Y883795D02*
Y891795D01*
X1046394Y893307D02*
X1054394D01*
X1050394Y889307D02*
Y897307D01*
X1041669Y887402D02*
X1049669D01*
X1045669Y883402D02*
Y891402D01*
X1036157Y881496D02*
X1044157D01*
X1040157Y877496D02*
Y885496D01*
X1032220Y885039D02*
X1040220D01*
X1036220Y881039D02*
Y889039D01*
X1032220Y891339D02*
X1040220D01*
X1036220Y887339D02*
Y895339D01*
X1044622Y898228D02*
X1052622D01*
X1048622Y894228D02*
Y902228D01*
X1038520Y898425D02*
X1046520D01*
X1042520Y894425D02*
Y902425D01*
X1032220Y898031D02*
X1040220D01*
X1036220Y894031D02*
Y902031D01*
X1052299Y902756D02*
X1060299D01*
X1056299Y898756D02*
Y906756D01*
X1042063Y902756D02*
X1050063D01*
X1046063Y898756D02*
Y906756D01*
X1033795Y902756D02*
X1041795D01*
X1037795Y898756D02*
Y906756D01*
X1017260Y878346D02*
X1025260D01*
X1021260Y874346D02*
Y882346D01*
X1018441Y871260D02*
X1026441D01*
X1022441Y867260D02*
Y875260D01*
X1012929Y864961D02*
X1020929D01*
X1016929Y860961D02*
Y868961D01*
X1013323Y857087D02*
X1021323D01*
X1017323Y853087D02*
Y861087D01*
X1016866Y861417D02*
X1024866D01*
X1020866Y857417D02*
Y865417D01*
X1020409Y865354D02*
X1028409D01*
X1024409Y861354D02*
Y869354D01*
X1023559Y868898D02*
X1031559D01*
X1027559Y864898D02*
Y872898D01*
X1026709Y872441D02*
X1034709D01*
X1030709Y868441D02*
Y876441D01*
X1022772Y875591D02*
X1030772D01*
X1026772Y871591D02*
Y879591D01*
X1022772Y881102D02*
X1030772D01*
X1026772Y877102D02*
Y885102D01*
X1016866Y885827D02*
X1024866D01*
X1020866Y881827D02*
Y889827D01*
X1022772Y889370D02*
X1030772D01*
X1026772Y885370D02*
Y893370D01*
X1022772Y893701D02*
X1030772D01*
X1026772Y889701D02*
Y897701D01*
X1016866Y891339D02*
X1024866D01*
X1020866Y887339D02*
Y895339D01*
X1016866Y896850D02*
X1024866D01*
X1020866Y892850D02*
Y900850D01*
X1022772Y902362D02*
X1030772D01*
X1026772Y898362D02*
Y906362D01*
X1016866Y902362D02*
X1024866D01*
X1020866Y898362D02*
Y906362D01*
X1009386Y882677D02*
X1017386D01*
X1013386Y878677D02*
Y886677D01*
X1008205Y878740D02*
X1016205D01*
X1012205Y874740D02*
Y882740D01*
X1003874Y878740D02*
X1011874D01*
X1007874Y874740D02*
Y882740D01*
X986551Y878740D02*
X994551D01*
X990551Y874740D02*
Y882740D01*
X983008Y882283D02*
X991008D01*
X987008Y878283D02*
Y886283D01*
X982220Y878740D02*
X990220D01*
X986220Y874740D02*
Y882740D01*
X1050134Y898031D02*
X1058134D01*
X1054134Y894031D02*
Y902031D01*
X1047575Y902756D02*
X1055575D01*
X1051575Y898756D02*
Y906756D01*
X987339Y855118D02*
X995339D01*
X991339Y851118D02*
Y859118D01*
X981827Y855118D02*
X989827D01*
X985827Y851118D02*
Y859118D01*
X1013323Y873228D02*
X1021323D01*
X1017323Y869228D02*
Y877228D01*
X960173Y929528D02*
X968173D01*
X964173Y925528D02*
Y933528D01*
X943441Y912402D02*
X951441D01*
X947441Y908402D02*
Y916402D01*
X943441Y915157D02*
X951441D01*
X947441Y911157D02*
Y919157D01*
X943441Y917913D02*
X951441D01*
X947441Y913913D02*
Y921913D01*
X959386Y911417D02*
X967386D01*
X963386Y907417D02*
Y915417D01*
X972772Y904331D02*
X980772D01*
X976772Y900331D02*
Y908331D01*
X969622Y907874D02*
X977622D01*
X973622Y903874D02*
Y911874D01*
X972772Y909055D02*
X980772D01*
X976772Y905055D02*
Y913055D01*
X969622Y912205D02*
X977622D01*
X973622Y908205D02*
Y916205D01*
X972772Y913386D02*
X980772D01*
X976772Y909386D02*
Y917386D01*
X969622Y916142D02*
X977622D01*
X973622Y912142D02*
Y920142D01*
X957417Y913583D02*
X965417D01*
X961417Y909583D02*
Y917583D01*
X958992Y934252D02*
X966992D01*
X962992Y930252D02*
Y938252D01*
X960567Y925591D02*
X968567D01*
X964567Y921591D02*
Y929591D01*
X956630Y927165D02*
X964630D01*
X960630Y923165D02*
Y931165D01*
X956236Y933071D02*
X964236D01*
X960236Y929071D02*
Y937071D01*
X940488Y955906D02*
X948488D01*
X944488Y951906D02*
Y959906D01*
X940488Y953150D02*
X948488D01*
X944488Y949150D02*
Y957150D01*
X939898Y929724D02*
X947898D01*
X943898Y925724D02*
Y933724D01*
X939898Y935236D02*
X947898D01*
X943898Y931236D02*
Y939236D01*
X957024Y905118D02*
X965024D01*
X961024Y901118D02*
Y909118D01*
X939898Y932480D02*
X947898D01*
X943898Y928480D02*
Y936480D01*
X937142Y935236D02*
X945142D01*
X941142Y931236D02*
Y939236D01*
X966669Y904921D02*
X974669D01*
X970669Y900921D02*
Y908921D01*
X937142Y929724D02*
X945142D01*
X941142Y925724D02*
Y933724D01*
X937142Y932480D02*
X945142D01*
X941142Y928480D02*
Y936480D01*
X958598Y938976D02*
X966598D01*
X962598Y934976D02*
Y942976D01*
X961354Y938976D02*
X969354D01*
X965354Y934976D02*
Y942976D01*
X955843Y938976D02*
X963843D01*
X959843Y934976D02*
Y942976D01*
X961354Y932283D02*
X969354D01*
X965354Y928283D02*
Y936283D01*
X973165Y954724D02*
X981165D01*
X977165Y950724D02*
Y958724D01*
X973165Y958661D02*
X981165D01*
X977165Y954661D02*
Y962661D01*
X974346Y970866D02*
X982346D01*
X978346Y966866D02*
Y974866D01*
X975528Y973622D02*
X983528D01*
X979528Y969622D02*
Y977622D01*
X972772Y973622D02*
X980772D01*
X976772Y969622D02*
Y977622D01*
X970803Y970866D02*
X978803D01*
X974803Y966866D02*
Y974866D01*
X969622Y973622D02*
X977622D01*
X973622Y969622D02*
Y977622D01*
X967654Y970866D02*
X975654D01*
X971654Y966866D02*
Y974866D01*
X965685Y973228D02*
X973685D01*
X969685Y969228D02*
Y977228D01*
X967654Y975591D02*
X975654D01*
X971654Y971591D02*
Y979591D01*
X970016Y977953D02*
X978016D01*
X974016Y973953D02*
Y981953D01*
X972378Y980315D02*
X980378D01*
X976378Y976315D02*
Y984315D01*
X972378Y983071D02*
X980378D01*
X976378Y979071D02*
Y987071D01*
X964898Y964961D02*
X972898D01*
X968898Y960961D02*
Y968961D01*
X961748Y961811D02*
X969748D01*
X965748Y957811D02*
Y965811D01*
X967654Y964961D02*
X975654D01*
X971654Y960961D02*
Y968961D01*
X965291Y961811D02*
X973291D01*
X969291Y957811D02*
Y965811D01*
X963323Y959055D02*
X971323D01*
X967323Y955055D02*
Y963055D01*
X958992Y959055D02*
X966992D01*
X962992Y955055D02*
Y963055D01*
X955055Y959055D02*
X963055D01*
X959055Y955055D02*
Y963055D01*
X951118Y959055D02*
X959118D01*
X955118Y955055D02*
Y963055D01*
X947181Y959055D02*
X955181D01*
X951181Y955055D02*
Y963055D01*
X935764Y958661D02*
X943764D01*
X939764Y954661D02*
Y962661D01*
X935764Y961811D02*
X943764D01*
X939764Y957811D02*
Y965811D01*
X951118Y962598D02*
X959118D01*
X955118Y958598D02*
Y966598D01*
X947181Y962598D02*
X955181D01*
X951181Y958598D02*
Y966598D01*
X949150Y966142D02*
X957150D01*
X953150Y962142D02*
Y970142D01*
X949150Y970079D02*
X957150D01*
X953150Y966079D02*
Y974079D01*
X949150Y973622D02*
X957150D01*
X953150Y969622D02*
Y977622D01*
X949150Y977165D02*
X957150D01*
X953150Y973165D02*
Y981165D01*
X964898Y936220D02*
X972898D01*
X968898Y932220D02*
Y940220D01*
X979071Y931299D02*
X987071D01*
X983071Y927299D02*
Y935299D01*
X987339Y975984D02*
X995339D01*
X991339Y971984D02*
Y979984D01*
X987339Y970079D02*
X995339D01*
X991339Y966079D02*
Y974079D01*
X988126Y950787D02*
X996126D01*
X992126Y946787D02*
Y954787D01*
X990094Y944094D02*
X998094D01*
X994094Y940094D02*
Y948094D01*
X1002102Y972835D02*
X1010102D01*
X1006102Y968835D02*
Y976835D01*
X1002693Y913386D02*
X1010693D01*
X1006693Y909386D02*
Y917386D01*
X999937Y925197D02*
X1007937D01*
X1003937Y921197D02*
Y929197D01*
X979268Y945079D02*
X987268D01*
X983268Y941079D02*
Y949079D01*
X1023953Y970079D02*
X1031953D01*
X1027953Y966079D02*
Y974079D01*
X1008205Y981496D02*
X1016205D01*
X1012205Y977496D02*
Y985496D01*
X1040094Y935433D02*
X1048094D01*
X1044094Y931433D02*
Y939433D01*
X987142Y944094D02*
X995142D01*
X991142Y940094D02*
Y948094D01*
X981039Y933268D02*
X989039D01*
X985039Y929268D02*
Y937268D01*
X1046394Y938189D02*
X1054394D01*
X1050394Y934189D02*
Y942189D01*
X1049150Y938189D02*
X1057150D01*
X1053150Y934189D02*
Y942189D01*
X986157Y962992D02*
X994157D01*
X990157Y958992D02*
Y966992D01*
X997969Y960630D02*
X1005969D01*
X1001969Y956630D02*
Y964630D01*
X981236Y943110D02*
X989236D01*
X985236Y939110D02*
Y947110D01*
X978677Y905118D02*
X986677D01*
X982677Y901118D02*
Y909118D01*
X992457Y933268D02*
X1000457D01*
X996457Y929268D02*
Y937268D01*
X990094Y946850D02*
X998094D01*
X994094Y942850D02*
Y950850D01*
X1004071Y974803D02*
X1012071D01*
X1008071Y970803D02*
Y978803D01*
X985764Y929528D02*
X993764D01*
X989764Y925528D02*
Y933528D01*
X1056630Y906693D02*
X1064630D01*
X1060630Y902693D02*
Y910693D01*
X1013717Y920472D02*
X1021717D01*
X1017717Y916472D02*
Y924472D01*
X1031433Y925197D02*
X1039433D01*
X1035433Y921197D02*
Y929197D01*
X1036551Y925197D02*
X1044551D01*
X1040551Y921197D02*
Y929197D01*
X1036551Y930315D02*
X1044551D01*
X1040551Y926315D02*
Y934315D01*
X1031433Y930315D02*
X1039433D01*
X1035433Y926315D02*
Y934315D01*
X1036551Y935039D02*
X1044551D01*
X1040551Y931039D02*
Y939039D01*
X1031433Y935039D02*
X1039433D01*
X1035433Y931039D02*
Y939039D01*
X1025528Y935039D02*
X1033528D01*
X1029528Y931039D02*
Y939039D01*
X1031433Y938976D02*
X1039433D01*
X1035433Y934976D02*
Y942976D01*
X1036551Y938976D02*
X1044551D01*
X1040551Y934976D02*
Y942976D01*
X1025528Y938976D02*
X1033528D01*
X1029528Y934976D02*
Y942976D01*
X1042457Y938583D02*
X1050457D01*
X1046457Y934583D02*
Y942583D01*
X1042457Y931496D02*
X1050457D01*
X1046457Y927496D02*
Y935496D01*
X1043244Y925197D02*
X1051244D01*
X1047244Y921197D02*
Y929197D01*
X1042063Y920472D02*
X1050063D01*
X1046063Y916472D02*
Y924472D01*
X1045606Y920472D02*
X1053606D01*
X1049606Y916472D02*
Y924472D01*
X1047575Y922835D02*
X1055575D01*
X1051575Y918835D02*
Y926835D01*
X1047575Y944094D02*
X1055575D01*
X1051575Y940094D02*
Y948094D01*
X1043638Y945276D02*
X1051638D01*
X1047638Y941276D02*
Y949276D01*
X1017260Y947638D02*
X1025260D01*
X1021260Y943638D02*
Y951638D01*
X1015685Y950394D02*
X1023685D01*
X1019685Y946394D02*
Y954394D01*
X1036945Y949213D02*
X1044945D01*
X1040945Y945213D02*
Y953213D01*
X1031433Y949213D02*
X1039433D01*
X1035433Y945213D02*
Y953213D01*
X1053874Y909843D02*
X1061874D01*
X1057874Y905843D02*
Y913843D01*
X984976Y908268D02*
X992976D01*
X988976Y904268D02*
Y912268D01*
X983008Y905512D02*
X991008D01*
X987008Y901512D02*
Y909512D01*
X981433Y908268D02*
X989433D01*
X985433Y904268D02*
Y912268D01*
X1000724Y946063D02*
X1008724D01*
X1004724Y942063D02*
Y950063D01*
X998362Y944488D02*
X1006362D01*
X1002362Y940488D02*
Y948488D01*
X998362Y947638D02*
X1006362D01*
X1002362Y943638D02*
Y951638D01*
X998362Y950787D02*
X1006362D01*
X1002362Y946787D02*
Y954787D01*
X1001118Y950787D02*
X1009118D01*
X1005118Y946787D02*
Y954787D01*
X1000331Y942126D02*
X1008331D01*
X1004331Y938126D02*
Y946126D01*
X995606Y937598D02*
X1003606D01*
X999606Y933598D02*
Y941598D01*
X997969Y935433D02*
X1005969D01*
X1001969Y931433D02*
Y939433D01*
X994031Y940157D02*
X1002031D01*
X998031Y936157D02*
Y944157D01*
X992260Y937402D02*
X1000260D01*
X996260Y933402D02*
Y941402D01*
X979465Y948031D02*
X987465D01*
X983465Y944031D02*
Y952031D01*
X988520Y929528D02*
X996520D01*
X992520Y925528D02*
Y933528D01*
X986945Y937795D02*
X994945D01*
X990945Y933795D02*
Y941795D01*
X981630Y936220D02*
X989630D01*
X985630Y932220D02*
Y940220D01*
X984189Y944882D02*
X992189D01*
X988189Y940882D02*
Y948882D01*
X983008Y947638D02*
X991008D01*
X987008Y943638D02*
Y951638D01*
X986945Y947638D02*
X994945D01*
X990945Y943638D02*
Y951638D01*
X984976Y950394D02*
X992976D01*
X988976Y946394D02*
Y954394D01*
X981039Y950394D02*
X989039D01*
X985039Y946394D02*
Y954394D01*
X978283Y954724D02*
X986283D01*
X982283Y950724D02*
Y958724D01*
X978283Y958661D02*
X986283D01*
X982283Y954661D02*
Y962661D01*
X1036748Y945472D02*
X1044748D01*
X1040748Y941472D02*
Y949472D01*
X983008Y972047D02*
X991008D01*
X987008Y968047D02*
Y976047D01*
X984583Y974409D02*
X992583D01*
X988583Y970409D02*
Y978409D01*
X980646Y973622D02*
X988646D01*
X984646Y969622D02*
Y977622D01*
X980252Y970866D02*
X988252D01*
X984252Y966866D02*
Y974866D01*
X1031433Y945472D02*
X1039433D01*
X1035433Y941472D02*
Y949472D01*
X978283Y951575D02*
X986283D01*
X982283Y947575D02*
Y955575D01*
X1005843Y979921D02*
X1013843D01*
X1009843Y975921D02*
Y983921D01*
X1002299Y979921D02*
X1010299D01*
X1006299Y975921D02*
Y983921D01*
X999150Y982677D02*
X1007150D01*
X1003150Y978677D02*
Y986677D01*
X1002299Y982677D02*
X1010299D01*
X1006299Y978677D02*
Y986677D01*
X1052102Y975394D02*
X1060102D01*
X1056102Y971394D02*
Y979394D01*
X1052693Y970669D02*
X1060693D01*
X1056693Y966669D02*
Y974669D01*
X1049543Y970669D02*
X1057543D01*
X1053543Y966669D02*
Y974669D01*
X1053087Y981496D02*
X1061087D01*
X1057087Y977496D02*
Y985496D01*
X1053087Y978346D02*
X1061087D01*
X1057087Y974346D02*
Y982346D01*
X1007417Y956496D02*
X1015417D01*
X1011417Y952496D02*
Y960496D01*
X1005843Y954134D02*
X1013843D01*
X1009843Y950134D02*
Y958134D01*
X1005843Y959055D02*
X1013843D01*
X1009843Y955055D02*
Y963055D01*
X1002693Y964764D02*
X1010693D01*
X1006693Y960764D02*
Y968764D01*
X1017654Y967520D02*
X1025654D01*
X1021654Y963520D02*
Y971520D01*
X1015488Y965354D02*
X1023488D01*
X1019488Y961354D02*
Y969354D01*
X1015094Y968898D02*
X1023094D01*
X1019094Y964898D02*
Y972898D01*
X1012535Y966535D02*
X1020535D01*
X1016535Y962535D02*
Y970535D01*
X1017260Y970669D02*
X1025260D01*
X1021260Y966669D02*
Y974669D01*
X1016276Y960433D02*
X1024276D01*
X1020276Y956433D02*
Y964433D01*
X1019228Y961417D02*
X1027228D01*
X1023228Y957417D02*
Y965417D01*
X1021394Y963780D02*
X1029394D01*
X1025394Y959780D02*
Y967780D01*
X1054268Y968307D02*
X1062268D01*
X1058268Y964307D02*
Y972307D01*
X1051118Y968307D02*
X1059118D01*
X1055118Y964307D02*
Y972307D01*
X1047772Y968307D02*
X1055772D01*
X1051772Y964307D02*
Y972307D01*
X1043835Y972835D02*
X1051835D01*
X1047835Y968835D02*
Y976835D01*
X1044622Y969882D02*
X1052622D01*
X1048622Y965882D02*
Y973882D01*
X1044622Y966929D02*
X1052622D01*
X1048622Y962929D02*
Y970929D01*
X1036157Y969488D02*
X1044157D01*
X1040157Y965488D02*
Y973488D01*
X1044622Y964173D02*
X1052622D01*
X1048622Y960173D02*
Y968173D01*
X1033205Y969488D02*
X1041205D01*
X1037205Y965488D02*
Y973488D01*
X1030252Y969488D02*
X1038252D01*
X1034252Y965488D02*
Y973488D01*
X1027299Y969488D02*
X1035299D01*
X1031299Y965488D02*
Y973488D01*
X1026512Y966732D02*
X1034512D01*
X1030512Y962732D02*
Y970732D01*
X1026512Y963976D02*
X1034512D01*
X1030512Y959976D02*
Y967976D01*
X1032024Y963976D02*
X1040024D01*
X1036024Y959976D02*
Y967976D01*
X1032024Y966732D02*
X1040024D01*
X1036024Y962732D02*
Y970732D01*
X982220Y975984D02*
X990220D01*
X986220Y971984D02*
Y979984D01*
X1002890Y925197D02*
X1010890D01*
X1006890Y921197D02*
Y929197D01*
X999150Y979921D02*
X1007150D01*
X1003150Y975921D02*
Y983921D01*
X1005252Y982677D02*
X1013252D01*
X1009252Y978677D02*
Y986677D01*
X1029268Y963976D02*
X1037268D01*
X1033268Y959976D02*
Y967976D01*
X1029268Y966732D02*
X1037268D01*
X1033268Y962732D02*
Y970732D01*
X996787Y925197D02*
X1004787D01*
X1000787Y921197D02*
Y929197D01*
X1000331Y962598D02*
X1008331D01*
X1004331Y958598D02*
Y966598D01*
X990094Y940157D02*
X998094D01*
X994094Y936157D02*
Y944157D01*
X990882Y927362D02*
X998882D01*
X994882Y923362D02*
Y931362D01*
X1003087Y948819D02*
X1011087D01*
X1007087Y944819D02*
Y952819D01*
X979071Y935236D02*
X987071D01*
X983071Y931236D02*
Y939236D01*
X973559Y1017457D02*
X981559Y1025457D01*
X973559D02*
X981559Y1017457D01*
X969425Y1009252D02*
X977425D01*
X973425Y1005252D02*
Y1013252D01*
X975724Y1003150D02*
X983724D01*
X979724Y999150D02*
Y1007150D01*
X972378Y988583D02*
X980378D01*
X976378Y984583D02*
Y992583D01*
X970409Y992913D02*
X978409D01*
X974409Y988913D02*
Y996913D01*
X975134Y984646D02*
X983134D01*
X979134Y980646D02*
Y988646D01*
X972378Y985827D02*
X980378D01*
X976378Y981827D02*
Y989827D01*
X945213Y986614D02*
X953213D01*
X949213Y982614D02*
Y990614D01*
X944819Y994094D02*
X952819D01*
X948819Y990094D02*
Y998094D01*
X942063Y994094D02*
X950063D01*
X946063Y990094D02*
Y998094D01*
X945606Y996850D02*
X953606D01*
X949606Y992850D02*
Y1000850D01*
X945606Y1000000D02*
X953606D01*
X949606Y996000D02*
Y1004000D01*
X945606Y1003543D02*
X953606D01*
X949606Y999543D02*
Y1007543D01*
X945606Y1009843D02*
X953606D01*
X949606Y1005843D02*
Y1013843D01*
X948756Y1007087D02*
X956756D01*
X952756Y1003087D02*
Y1011087D01*
X951906Y1007087D02*
X959906D01*
X955906Y1003087D02*
Y1011087D01*
X951906Y1009843D02*
X959906D01*
X955906Y1005843D02*
Y1013843D01*
X948756Y1009843D02*
X956756D01*
X952756Y1005843D02*
Y1013843D01*
X945606Y1007087D02*
X953606D01*
X949606Y1003087D02*
Y1011087D01*
X950528Y1012598D02*
X958528D01*
X954528Y1008598D02*
Y1016598D01*
X942850Y1013386D02*
X950850D01*
X946850Y1009386D02*
Y1017386D01*
X944031Y1019685D02*
X952031D01*
X948031Y1015685D02*
Y1023685D01*
X939701Y1019685D02*
X947701D01*
X943701Y1015685D02*
Y1023685D01*
X937732Y1021654D02*
X945732D01*
X941732Y1017654D02*
Y1025654D01*
X942063Y1021654D02*
X950063D01*
X946063Y1017654D02*
Y1025654D01*
X942850Y1016535D02*
X950850D01*
X946850Y1012535D02*
Y1020535D01*
X947575Y1035433D02*
X955575D01*
X951575Y1031433D02*
Y1039433D01*
X951118Y1035433D02*
X959118D01*
X955118Y1031433D02*
Y1039433D01*
X954661Y1035433D02*
X962661D01*
X958661Y1031433D02*
Y1039433D01*
X958205Y1035433D02*
X966205D01*
X962205Y1031433D02*
Y1039433D01*
X961748Y1035433D02*
X969748D01*
X965748Y1031433D02*
Y1039433D01*
X937732Y1038583D02*
X945732D01*
X941732Y1034583D02*
Y1042583D01*
X941276Y1038583D02*
X949276D01*
X945276Y1034583D02*
Y1042583D01*
X944819Y1038583D02*
X952819D01*
X948819Y1034583D02*
Y1042583D01*
X948362Y1038583D02*
X956362D01*
X952362Y1034583D02*
Y1042583D01*
X958992Y1038583D02*
X966992D01*
X962992Y1034583D02*
Y1042583D01*
X962929Y1038583D02*
X970929D01*
X966929Y1034583D02*
Y1042583D01*
X955449Y1038583D02*
X963449D01*
X959449Y1034583D02*
Y1042583D01*
X966866Y1038583D02*
X974866D01*
X970866Y1034583D02*
Y1042583D01*
X970016Y1038583D02*
X978016D01*
X974016Y1034583D02*
Y1042583D01*
X951906Y1038583D02*
X959906D01*
X955906Y1034583D02*
Y1042583D01*
X959780Y1021197D02*
X967780Y1029197D01*
X959780D02*
X967780Y1021197D01*
X966079Y1016472D02*
X974079Y1024472D01*
X966079D02*
X974079Y1016472D01*
X998362Y1027496D02*
X1006362Y1035496D01*
X998362D02*
X1006362Y1027496D01*
X1045213Y988583D02*
X1053213D01*
X1049213Y984583D02*
Y992583D01*
X1047969Y1021654D02*
X1055969D01*
X1051969Y1017654D02*
Y1025654D01*
X995606Y1022835D02*
X1003606D01*
X999606Y1018835D02*
Y1026835D01*
X981039Y999606D02*
X989039D01*
X985039Y995606D02*
Y1003606D01*
X996000Y1038583D02*
X1004000D01*
X1000000Y1034583D02*
Y1042583D01*
X992850Y1038583D02*
X1000850D01*
X996850Y1034583D02*
Y1042583D01*
X989701Y1038583D02*
X997701D01*
X993701Y1034583D02*
Y1042583D01*
X986551Y1038583D02*
X994551D01*
X990551Y1034583D02*
Y1042583D01*
X983402Y1038583D02*
X991402D01*
X987402Y1034583D02*
Y1042583D01*
X980252Y1038583D02*
X988252D01*
X984252Y1034583D02*
Y1042583D01*
X977102Y1038583D02*
X985102D01*
X981102Y1034583D02*
Y1042583D01*
X1013323Y1038583D02*
X1021323D01*
X1017323Y1034583D02*
Y1042583D01*
X1010173Y1038583D02*
X1018173D01*
X1014173Y1034583D02*
Y1042583D01*
X1006630Y1038583D02*
X1014630D01*
X1010630Y1034583D02*
Y1042583D01*
X1006630Y1041732D02*
X1014630D01*
X1010630Y1037732D02*
Y1045732D01*
X1010173Y1041732D02*
X1018173D01*
X1014173Y1037732D02*
Y1045732D01*
X1013323Y1041732D02*
X1021323D01*
X1017323Y1037732D02*
Y1045732D01*
X1016472Y1041732D02*
X1024472D01*
X1020472Y1037732D02*
Y1045732D01*
X1019622Y1041732D02*
X1027622D01*
X1023622Y1037732D02*
Y1045732D01*
X1023165Y1041732D02*
X1031165D01*
X1027165Y1037732D02*
Y1045732D01*
X1026709Y1041732D02*
X1034709D01*
X1030709Y1037732D02*
Y1045732D01*
X1030252Y1041732D02*
X1038252D01*
X1034252Y1037732D02*
Y1045732D01*
X1034189Y1041732D02*
X1042189D01*
X1038189Y1037732D02*
Y1045732D01*
X1036157Y1039764D02*
X1044157D01*
X1040157Y1035764D02*
Y1043764D01*
X1038126Y1041732D02*
X1046126D01*
X1042126Y1037732D02*
Y1045732D01*
X1040094Y1039764D02*
X1048094D01*
X1044094Y1035764D02*
Y1043764D01*
X1042063Y1041732D02*
X1050063D01*
X1046063Y1037732D02*
Y1045732D01*
X1044031Y1039764D02*
X1052031D01*
X1048031Y1035764D02*
Y1043764D01*
X1046000Y1041732D02*
X1054000D01*
X1050000Y1037732D02*
Y1045732D01*
X1047969Y1039764D02*
X1055969D01*
X1051969Y1035764D02*
Y1043764D01*
X1049937Y1041732D02*
X1057937D01*
X1053937Y1037732D02*
Y1045732D01*
X1051906Y1039764D02*
X1059906D01*
X1055906Y1035764D02*
Y1043764D01*
X1039307Y1031890D02*
X1047307D01*
X1043307Y1027890D02*
Y1035890D01*
X1039307Y1029134D02*
X1047307D01*
X1043307Y1025134D02*
Y1033134D01*
X1039307Y1026378D02*
X1047307D01*
X1043307Y1022378D02*
Y1030378D01*
X1018441Y1019291D02*
X1026441D01*
X1022441Y1015291D02*
Y1023291D01*
X1015685Y1019291D02*
X1023685D01*
X1019685Y1015291D02*
Y1023291D01*
X991276Y1013386D02*
X999276D01*
X995276Y1009386D02*
Y1017386D01*
X991276Y1003937D02*
X999276D01*
X995276Y999937D02*
Y1007937D01*
X986551Y999606D02*
X994551D01*
X990551Y995606D02*
Y1003606D01*
X996787Y993701D02*
X1004787D01*
X1000787Y989701D02*
Y997701D01*
X994819Y991339D02*
X1002819D01*
X998819Y987339D02*
Y995339D01*
X992063Y992126D02*
X1000063D01*
X996063Y988126D02*
Y996126D01*
X992063Y995276D02*
X1000063D01*
X996063Y991276D02*
Y999276D01*
X989307Y995276D02*
X997307D01*
X993307Y991276D02*
Y999276D01*
X989307Y992126D02*
X997307D01*
X993307Y988126D02*
Y996126D01*
X999543Y991339D02*
X1007543D01*
X1003543Y987339D02*
Y995339D01*
X999543Y994882D02*
X1007543D01*
X1003543Y990882D02*
Y998882D01*
X1000724Y985433D02*
X1008724D01*
X1004724Y981433D02*
Y989433D01*
X997969Y985433D02*
X1005969D01*
X1001969Y981433D02*
Y989433D01*
X999346Y1038189D02*
X1007346D01*
X1003346Y1034189D02*
Y1042189D01*
X999346Y1035236D02*
X1007346D01*
X1003346Y1031236D02*
Y1039236D01*
X991079Y1025197D02*
X999079D01*
X995079Y1021197D02*
Y1029197D01*
X991079Y1028346D02*
X999079D01*
X995079Y1024346D02*
Y1032346D01*
X994622Y1026969D02*
X1002622D01*
X998622Y1022969D02*
Y1030969D01*
X994622Y1030315D02*
X1002622D01*
X998622Y1026315D02*
Y1034315D01*
X991079Y1031299D02*
X999079D01*
X995079Y1027299D02*
Y1035299D01*
X995016Y1033661D02*
X1003016D01*
X999016Y1029661D02*
Y1037661D01*
X991669Y1034449D02*
X999669D01*
X995669Y1030449D02*
Y1038449D01*
X1007024Y1035827D02*
X1015024D01*
X1011024Y1031827D02*
Y1039827D01*
X1007024Y1033071D02*
X1015024D01*
X1011024Y1029071D02*
Y1037071D01*
X1007024Y1030118D02*
X1015024D01*
X1011024Y1026118D02*
Y1034118D01*
X1021591Y1019291D02*
X1029591D01*
X1025591Y1015291D02*
Y1023291D01*
X1012339Y1020079D02*
X1020339D01*
X1016339Y1016079D02*
Y1024079D01*
X1006827Y1027165D02*
X1014827D01*
X1010827Y1023165D02*
Y1031165D01*
X996197Y1012598D02*
X1004197D01*
X1000197Y1008598D02*
Y1016598D01*
X1000528Y1011417D02*
X1008528D01*
X1004528Y1007417D02*
Y1015417D01*
X1004661Y1007480D02*
X1012661D01*
X1008661Y1003480D02*
Y1011480D01*
X1006433Y1000787D02*
X1014433D01*
X1010433Y996787D02*
Y1004787D01*
X1008205Y998228D02*
X1016205D01*
X1012205Y994228D02*
Y1002228D01*
X1042457Y987992D02*
X1050457D01*
X1046457Y983992D02*
Y991992D01*
X1042457Y990748D02*
X1050457D01*
X1046457Y986748D02*
Y994748D01*
X1042457Y993504D02*
X1050457D01*
X1046457Y989504D02*
Y997504D01*
X1021197Y995866D02*
X1029197D01*
X1025197Y991866D02*
Y999866D01*
X1022575Y998425D02*
X1030575D01*
X1026575Y994425D02*
Y1002425D01*
X1018244Y995866D02*
X1026244D01*
X1022244Y991866D02*
Y999866D01*
X1012339Y1006890D02*
X1020339D01*
X1016339Y1002890D02*
Y1010890D01*
X1009976Y1005315D02*
X1017976D01*
X1013976Y1001315D02*
Y1009315D01*
X1015291Y1010039D02*
X1023291D01*
X1019291Y1006039D02*
Y1014039D01*
X1011157Y1009843D02*
X1019157D01*
X1015157Y1005843D02*
Y1013843D01*
X1013913Y1012402D02*
X1021913D01*
X1017913Y1008402D02*
Y1016402D01*
X1016866Y1012402D02*
X1024866D01*
X1020866Y1008402D02*
Y1016402D01*
X1010961Y1012598D02*
X1018961D01*
X1014961Y1008598D02*
Y1016598D01*
X1025134Y1013583D02*
X1033134D01*
X1029134Y1009583D02*
Y1017583D01*
X1028283Y1013189D02*
X1036283D01*
X1032283Y1009189D02*
Y1017189D01*
X1026906Y1010630D02*
X1034906D01*
X1030906Y1006630D02*
Y1014630D01*
X1006630Y995866D02*
X1014630D01*
X1010630Y991866D02*
Y999866D01*
X1008205Y993110D02*
X1016205D01*
X1012205Y989110D02*
Y997110D01*
X1006630Y990354D02*
X1014630D01*
X1010630Y986354D02*
Y994354D01*
X1008205Y987795D02*
X1016205D01*
X1012205Y983795D02*
Y991795D01*
X1049543Y1015157D02*
X1057543D01*
X1053543Y1011157D02*
Y1019157D01*
X1047181Y1016732D02*
X1055181D01*
X1051181Y1012732D02*
Y1020732D01*
X1053087Y1013780D02*
X1061087D01*
X1057087Y1009780D02*
Y1017780D01*
X1053087Y1011024D02*
X1061087D01*
X1057087Y1007024D02*
Y1015024D01*
X1053087Y1008268D02*
X1061087D01*
X1057087Y1004268D02*
Y1012268D01*
X1053087Y1005315D02*
X1061087D01*
X1057087Y1001315D02*
Y1009315D01*
X1053087Y1002362D02*
X1061087D01*
X1057087Y998362D02*
Y1006362D01*
X1053087Y999409D02*
X1061087D01*
X1057087Y995409D02*
Y1003409D01*
X1053087Y996457D02*
X1061087D01*
X1057087Y992457D02*
Y1000457D01*
X1053087Y993504D02*
X1061087D01*
X1057087Y989504D02*
Y997504D01*
X1053087Y990551D02*
X1061087D01*
X1057087Y986551D02*
Y994551D01*
X1053087Y987598D02*
X1061087D01*
X1057087Y983598D02*
Y991598D01*
X1053087Y984449D02*
X1061087D01*
X1057087Y980449D02*
Y988449D01*
X1028087Y984189D02*
X1036087Y992189D01*
X1028087D02*
X1036087Y984189D01*
X1033008D02*
X1041008Y992189D01*
X1033008D02*
X1041008Y984189D01*
X1037929Y988126D02*
X1045929Y996126D01*
X1037929D02*
X1045929Y988126D01*
X983795Y999606D02*
X991795D01*
X987795Y995606D02*
Y1003606D01*
X1037929Y984189D02*
X1045929Y992189D01*
X1037929D02*
X1045929Y984189D01*
X1033008Y988126D02*
X1041008Y996126D01*
X1033008D02*
X1041008Y988126D01*
X1028087D02*
X1036087Y996126D01*
X1028087D02*
X1036087Y988126D01*
X1003480Y985433D02*
X1011480D01*
X1007480Y981433D02*
Y989433D01*
X995213Y984252D02*
X1003213D01*
X999213Y980252D02*
Y988252D01*
X988323Y1008858D02*
X996323D01*
X992323Y1004858D02*
Y1012858D01*
X988520Y1035039D02*
X996520D01*
X992520Y1031039D02*
Y1039039D01*
X985370Y1032677D02*
X993370D01*
X989370Y1028677D02*
Y1036677D01*
X1035370Y996063D02*
X1043370D01*
X1039370Y992063D02*
Y1000063D01*
X1020213Y1012142D02*
X1028213Y1020142D01*
X1020213D02*
X1028213Y1012142D01*
X1011748D02*
X1019748Y1020142D01*
X1011748D02*
X1019748Y1012142D01*
X1046394Y994488D02*
X1054394D01*
X1050394Y990488D02*
Y998488D01*
X1021591Y1038189D02*
X1029591D01*
X1025591Y1034189D02*
Y1042189D01*
X1039307Y1035433D02*
X1047307D01*
X1043307Y1031433D02*
Y1039433D01*
X1049150Y1018898D02*
X1057150D01*
X1053150Y1014898D02*
Y1022898D01*
X1053480Y1018898D02*
X1061480D01*
X1057480Y1014898D02*
Y1022898D01*
X1057220Y1037598D02*
X1065220D01*
X1061220Y1033598D02*
Y1041598D01*
X1057220Y1034646D02*
X1065220D01*
X1061220Y1030646D02*
Y1038646D01*
X1057220Y1031496D02*
X1065220D01*
X1061220Y1027496D02*
Y1035496D01*
X1057220Y1028543D02*
X1065220D01*
X1061220Y1024543D02*
Y1032543D01*
X1057220Y1025787D02*
X1065220D01*
X1061220Y1021787D02*
Y1029787D01*
X1057220Y1023031D02*
X1065220D01*
X1061220Y1019031D02*
Y1027031D01*
X1057220Y1020276D02*
X1065220D01*
X1061220Y1016276D02*
Y1024276D01*
X1000000Y796409D02*
X1258000D01*
X1000000Y772409D02*
X1258000D01*
X1000000Y748409D02*
X1258000D01*
X1000000Y724409D02*
X1258000D01*
X1000000Y796409D02*
Y724409D01*
X1084000Y796409D02*
Y724409D01*
X1120000Y796409D02*
Y724409D01*
X1156000Y796409D02*
Y724409D01*
X1210000Y796409D02*
Y724409D01*
X1258000Y796409D02*
Y724409D01*
X1035500Y785159D02*
X1034955Y785909D01*
X1034136Y786284*
X1033045*
X1032227Y785909*
X1031682Y785159*
Y784409*
X1031955Y783659*
X1032227Y783284*
X1032773Y782909*
X1034409Y782159*
X1034955Y781784*
X1035227Y781409*
X1035500Y780659*
Y779534*
X1034955Y778784*
X1034136Y778409*
X1033045*
X1032227Y778784*
X1031682Y779534*
X1037955Y786284D02*
Y778409D01*
X1044227Y786284D02*
X1040409Y778409D01*
Y786284D02*
X1044227D01*
X1040409Y778409D02*
X1044227D01*
X1046682Y786284D02*
Y778409D01*
Y786284D02*
X1050227D01*
X1046682Y782534D02*
X1048864D01*
X1046682Y778409D02*
X1050227D01*
X1093864Y786284D02*
X1093318Y785909D01*
X1092773Y785159*
X1092500Y784409*
X1092227Y783284*
Y781409*
X1092500Y780284*
X1092773Y779534*
X1093318Y778784*
X1093864Y778409*
X1094955*
X1095500Y778784*
X1096045Y779534*
X1096318Y780284*
X1096591Y781409*
Y783284*
X1096318Y784409*
X1096045Y785159*
X1095500Y785909*
X1094955Y786284*
X1093864*
X1094682Y779909D02*
X1096318Y777659D01*
X1100955Y786284D02*
Y778409D01*
X1099045Y786284D02*
X1102864D01*
X1105318D02*
X1107500Y782534D01*
Y778409*
X1109682Y786284D02*
X1107500Y782534D01*
X1132045Y785159D02*
X1131500Y785909D01*
X1130682Y786284*
X1129591*
X1128773Y785909*
X1128227Y785159*
Y784409*
X1128500Y783659*
X1128773Y783284*
X1129318Y782909*
X1130955Y782159*
X1131500Y781784*
X1131773Y781409*
X1132045Y780659*
Y779534*
X1131500Y778784*
X1130682Y778409*
X1129591*
X1128773Y778784*
X1128227Y779534*
X1134500Y786284D02*
X1136682Y782534D01*
Y778409*
X1138864Y786284D02*
X1136682Y782534D01*
X1141318Y786284D02*
Y778409D01*
Y786284D02*
X1143500Y778409D01*
X1145682Y786284D02*
X1143500Y778409D01*
X1145682Y786284D02*
Y778409D01*
X1167500Y786284D02*
Y778409D01*
Y786284D02*
X1169955D01*
X1170773Y785909*
X1171045Y785534*
X1171318Y784784*
Y783659*
X1171045Y782909*
X1170773Y782534*
X1169955Y782159*
X1167500*
X1173773Y786284D02*
Y778409D01*
X1177045*
X1181682Y786284D02*
X1179500Y778409D01*
X1181682Y786284D02*
X1183864Y778409D01*
X1180318Y781034D02*
X1183045D01*
X1188227Y786284D02*
Y778409D01*
X1186318Y786284D02*
X1190136D01*
X1192591D02*
Y778409D01*
Y786284D02*
X1196136D01*
X1192591Y782534D02*
X1194773D01*
X1192591Y778409D02*
X1196136D01*
X1198591Y786284D02*
Y778409D01*
Y786284D02*
X1200500D01*
X1201318Y785909*
X1201864Y785159*
X1202136Y784409*
X1202409Y783284*
Y781409*
X1202136Y780284*
X1201864Y779534*
X1201318Y778784*
X1200500Y778409*
X1198591*
X1226682Y786284D02*
Y778409D01*
X1224773Y786284D02*
X1228591D01*
X1232682D02*
X1232136Y785909D01*
X1231591Y785159*
X1231318Y784409*
X1231045Y783284*
Y781409*
X1231318Y780284*
X1231591Y779534*
X1232136Y778784*
X1232682Y778409*
X1233773*
X1234318Y778784*
X1234864Y779534*
X1235136Y780284*
X1235409Y781409*
Y783284*
X1235136Y784409*
X1234864Y785159*
X1234318Y785909*
X1233773Y786284*
X1232682*
X1237864D02*
Y778409D01*
X1241136*
X1007636Y762284D02*
X1006818Y761909D01*
X1006273Y760784*
X1006000Y758909*
Y757784*
X1006273Y755909*
X1006818Y754784*
X1007636Y754409*
X1008182*
X1009000Y754784*
X1009545Y755909*
X1009818Y757784*
Y758909*
X1009545Y760784*
X1009000Y761909*
X1008182Y762284*
X1007636*
X1012545Y755159D02*
X1012273Y754784D01*
X1012545Y754409*
X1012818Y754784*
X1012545Y755159*
X1015818Y762284D02*
X1018818D01*
X1017182Y759284*
X1018000*
X1018545Y758909*
X1018818Y758534*
X1019091Y757409*
Y756659*
X1018818Y755534*
X1018273Y754784*
X1017455Y754409*
X1016636*
X1015818Y754784*
X1015545Y755159*
X1015273Y755909*
X1095364Y762284D02*
X1092636Y757034D01*
X1096727*
X1095364Y762284D02*
Y754409D01*
X1099455Y760409D02*
Y760784D01*
X1099727Y761534*
X1100000Y761909*
X1100545Y762284*
X1101636*
X1102182Y761909*
X1102455Y761534*
X1102727Y760784*
Y760034*
X1102455Y759284*
X1101909Y758159*
X1099182Y754409*
X1103000*
X1106000Y762284D02*
X1109000D01*
X1107364Y759284*
X1108182*
X1108727Y758909*
X1109000Y758534*
X1109273Y757409*
Y756659*
X1109000Y755534*
X1108455Y754784*
X1107636Y754409*
X1106818*
X1106000Y754784*
X1105727Y755159*
X1105455Y755909*
X1132000Y760409D02*
X1144000D01*
X1138000Y754409D02*
Y766409D01*
X1164636Y762284D02*
X1166818Y758534D01*
Y754409*
X1169000Y762284D02*
X1166818Y758534D01*
X1171455Y762284D02*
Y754409D01*
Y762284D02*
X1175000D01*
X1171455Y758534D02*
X1173636D01*
X1171455Y754409D02*
X1175000D01*
X1181273Y761159D02*
X1180727Y761909D01*
X1179909Y762284*
X1178818*
X1178000Y761909*
X1177455Y761159*
Y760409*
X1177727Y759659*
X1178000Y759284*
X1178545Y758909*
X1180182Y758159*
X1180727Y757784*
X1181000Y757409*
X1181273Y756659*
Y755534*
X1180727Y754784*
X1179909Y754409*
X1178818*
X1178000Y754784*
X1177455Y755534*
X1217818Y761159D02*
Y754409D01*
X1215364Y757784D02*
X1220273D01*
X1227636Y763784D02*
X1222727Y751784D01*
X1230091Y757784D02*
X1235000D01*
X1239091Y762284D02*
X1238273Y761909D01*
X1237727Y760784*
X1237455Y758909*
Y757784*
X1237727Y755909*
X1238273Y754784*
X1239091Y754409*
X1239636*
X1240455Y754784*
X1241000Y755909*
X1241273Y757784*
Y758909*
X1241000Y760784*
X1240455Y761909*
X1239636Y762284*
X1239091*
X1244000Y755159D02*
X1243727Y754784D01*
X1244000Y754409*
X1244273Y754784*
X1244000Y755159*
X1248364Y762284D02*
X1247545Y761909D01*
X1247000Y760784*
X1246727Y758909*
Y757784*
X1247000Y755909*
X1247545Y754784*
X1248364Y754409*
X1248909*
X1249727Y754784*
X1250273Y755909*
X1250545Y757784*
Y758909*
X1250273Y760784*
X1249727Y761909*
X1248909Y762284*
X1248364*
X1007636Y738284D02*
X1006818Y737909D01*
X1006273Y736784*
X1006000Y734909*
Y733784*
X1006273Y731909*
X1006818Y730784*
X1007636Y730409*
X1008182*
X1009000Y730784*
X1009545Y731909*
X1009818Y733784*
Y734909*
X1009545Y736784*
X1009000Y737909*
X1008182Y738284*
X1007636*
X1012545Y731159D02*
X1012273Y730784D01*
X1012545Y730409*
X1012818Y730784*
X1012545Y731159*
X1018818Y738284D02*
X1016091D01*
X1015818Y734909*
X1016091Y735284*
X1016909Y735659*
X1017727*
X1018545Y735284*
X1019091Y734534*
X1019364Y733409*
X1019091Y732659*
X1018818Y731534*
X1018273Y730784*
X1017455Y730409*
X1016636*
X1015818Y730784*
X1015545Y731159*
X1015273Y731909*
X1097136Y736784D02*
X1097682Y737159D01*
X1098500Y738284*
Y730409*
X1101227Y736409D02*
Y736784D01*
X1101500Y737534*
X1101773Y737909*
X1102318Y738284*
X1103409*
X1103955Y737909*
X1104227Y737534*
X1104500Y736784*
Y736034*
X1104227Y735284*
X1103682Y734159*
X1100955Y730409*
X1104773*
X1132000D02*
X1144000Y742409D01*
X1132000D02*
X1144000Y730409D01*
X1164636Y738284D02*
X1166818Y734534D01*
Y730409*
X1169000Y738284D02*
X1166818Y734534D01*
X1171455Y738284D02*
Y730409D01*
Y738284D02*
X1175000D01*
X1171455Y734534D02*
X1173636D01*
X1171455Y730409D02*
X1175000D01*
X1181273Y737159D02*
X1180727Y737909D01*
X1179909Y738284*
X1178818*
X1178000Y737909*
X1177455Y737159*
Y736409*
X1177727Y735659*
X1178000Y735284*
X1178545Y734909*
X1180182Y734159*
X1180727Y733784*
X1181000Y733409*
X1181273Y732659*
Y731534*
X1180727Y730784*
X1179909Y730409*
X1178818*
X1178000Y730784*
X1177455Y731534*
X1217818Y737159D02*
Y730409D01*
X1215364Y733784D02*
X1220273D01*
X1227636Y739784D02*
X1222727Y727784D01*
X1230091Y733784D02*
X1235000D01*
X1239091Y738284D02*
X1238273Y737909D01*
X1237727Y736784*
X1237455Y734909*
Y733784*
X1237727Y731909*
X1238273Y730784*
X1239091Y730409*
X1239636*
X1240455Y730784*
X1241000Y731909*
X1241273Y733784*
Y734909*
X1241000Y736784*
X1240455Y737909*
X1239636Y738284*
X1239091*
X1244000Y731159D02*
X1243727Y730784D01*
X1244000Y730409*
X1244273Y730784*
X1244000Y731159*
X1248364Y738284D02*
X1247545Y737909D01*
X1247000Y736784*
X1246727Y734909*
Y733784*
X1247000Y731909*
X1247545Y730784*
X1248364Y730409*
X1248909*
X1249727Y730784*
X1250273Y731909*
X1250545Y733784*
Y734909*
X1250273Y736784*
X1249727Y737909*
X1248909Y738284*
X1248364*
G54D136*
X1062945Y1043906D02*
Y849063D01*
X1050946Y812066D02*
G75*
G03X1062945Y849106I-51169J37040D01*
G01X1050909Y812016D02*
X1024382D01*
Y804902*
X975563*
Y812012*
X949020*
X936965Y849083D02*
G03X949002Y812036I62692J-109D01*
G01X936965Y849035D02*
Y1043906D01*
X1062945*
X1054921Y990157D02*
G03X1054921I-2165J0D01*
G01X1004331Y1000000D02*
G03X1004331I-4331J0D01*
G01X949409Y990157D02*
G03X949409I-2165J0D01*
G01X1014961Y894331D02*
G03X1014961I-14961J0D01*
G01X1008071Y819528D02*
G03X1008071I-8071J0D01*
G54D137*
G74*
G01X0Y0D02*
M02*
