%
T1C.01181F095S3
X096142Y090236
X096102Y090512
X096339Y091142
X094744Y09124
X096142Y091358
X094744Y091516
X094744Y091791
X096457Y092559
X096063Y092717
X096417Y092953
X09439Y092972
X094114Y092972
X09439Y093248
X094114Y093248
X096024Y093307
X096299Y093425
X094114Y093524
X09439Y093524
X09626Y093898
X095984Y093898
X094449Y095315
X094449Y095591
X093976Y095866
X095906Y095906
X095512Y095906
X095118Y095906
X096299Y095906
X093976Y096181
X095512Y09626
X095118Y09626
X095315Y096614
X095315Y097008
X095315Y097362
X095315Y097717
X094921Y098661
X094882Y099409
X094606Y099409
X094961Y099685
X094961Y1
X094961Y100354
X095276Y100709
X095591Y100709
X094961Y100709
X095591Y100984
X095276Y100984
X094961Y100984
X095453Y10126
X094685Y101339
X094685Y101654
X09437Y101969
X094803Y101969
X094606Y102165
X094173Y102165
X095157Y103543
X095512Y103543
X095866Y103543
X09622Y103543
X094173Y103858
X094528Y103858
X094882Y103858
X095236Y103858
X096299Y103858
X095945Y103858
X095591Y103858
X096693Y103858
X097087Y103858
X097402Y103858
X09874Y103858
X098425Y103858
X09811Y103858
X096575Y103543
X098937Y103268
X097343Y100925
X097972Y100315
X098504Y099961
X09878Y099961
X097441Y099291
X097638Y098858
X097638Y098583
X097913Y098465
X097638Y098307
X097638Y098031
X097402Y097795
X098622Y097598
X097165Y097559
X098858Y097441
X097953Y097362
X097677Y097362
X097362Y097362
X098465Y097362
X096969Y097323
X098701Y097205
X097835Y097087
X09748Y097087
X097165Y097087
X098425Y097087
X09689Y096496
X097165Y096496
X096575Y096181
X096929Y096181
X096732Y095906
X097717Y095866
X098228Y095866
X097717Y095472
X098228Y095472
X098228Y095157
X098898Y095039
X098504Y095039
X098346Y094803
X098701Y094764
X098327Y094508
X098819Y094488
X098524Y094311
X096535Y093898
X098563Y093622
X09689Y093622
X098307Y093524
X098504Y093327
X096535Y093228
X098307Y09313
X097362Y091614
X097677Y091339
X097362Y09122
X097677Y090906
X098898Y090827
X098543Y090827
X097362Y090787
X098701Y090551
X098268Y090512
X097067Y090492
X097677Y090433
X097362Y090315
X097677Y09
X097362Y089843
X097677Y089567
X097323Y08874
X098701Y088228
X097323Y087953
X097717Y087953
X098622Y087874
X097323Y087323
X097717Y087323
X098898Y086772
X097717Y086693
X097323Y086693
X098898Y086378
X097323Y086063
X097717Y085748
X098583Y085512
X097559Y084921
X09874Y084331
X100748Y084331
X100118Y084331
X099449Y084331
X101102Y084764
X100827Y085236
X099134Y085512
X099961Y086339
X100906Y086339
X099961Y086772
X100906Y086772
X100236Y087638
X099685Y087638
X099055Y087874
X10122Y087874
X100787Y087874
X101339Y088268
X100669Y091339
X100689Y09252
X100079Y09252
X100394Y09252
X099488Y092736
X098976Y092953
X099252Y092953
X099646Y093327
X100197Y093543
X099626Y09374
X099961Y09376
X099094Y09378
X099409Y094016
X099803Y094016
X100433Y094213
X099409Y094409
X099114Y094409
X100236Y094449
X100472Y094606
X099409Y094685
X099094Y094764
X100236Y094764
X100709Y094882
X100236Y095079
X100512Y095079
X099213Y095079
X100984Y095413
X101142Y09565
X100984Y095906
X100197Y096063
X100433Y09626
X099016Y096299
X100669Y096476
X099134Y097008
X10061Y097283
X100807Y09748
X099134Y097598
X100984Y097992
X100315Y097992
X10063Y097992
X10122Y09815
X100925Y098268
X10063Y098268
X100315Y098268
X099921Y098425
X100472Y098543
X100197Y098543
X100748Y098543
X10122Y09878
X101063Y099035
X099882Y099134
X100354Y099134
X099606Y099213
X099331Y099213
X10122Y099311
X100079Y09937
X100354Y099488
X099606Y099528
X099331Y099528
X101063Y099587
X10122Y099823
X099055Y099961
X101043Y100079
X099528Y100394
X101398Y100531
X100866Y100748
X099232Y100886
X100453Y101142
X10002Y10126
X099528Y101339
X099961Y102283
X099508Y10252
X099862Y102697
X101083Y102717
X099508Y102835
X101102Y103012
X099862Y103031
X099508Y10313
X101102Y103307
X099902Y103366
X099567Y103445
X099252Y103504
X100335Y103524
X101102Y103583
X100335Y103819
X101063Y103858
X1Y103858
X101417Y103858
X09937Y103858
X099055Y103858
X099685Y103858
X101063Y104173
X101417Y104173
X101732Y104173
X102047Y104173
X102362Y104173
X102717Y104173
X103071Y104173
X103425Y104173
X103819Y104173
X101732Y103858
X102559Y103819
X101634Y102008
X102244Y101929
X101969Y101929
X102559Y101929
X102913Y101358
X103228Y101319
X101496Y10126
X101791Y10124
X102087Y10124
X103091Y101063
X101929Y101004
X101516Y100984
X101634Y100689
X102657Y099843
X103937Y099606
X10252Y099587
X102224Y099587
X102126Y097067
X102795Y097008
X10372Y096949
X103425Y096949
X10313Y096949
X101909Y09689
X102165Y096752
X103051Y096673
X103602Y096673
X103327Y096673
X101654Y096654
X101949Y096535
X103051Y096398
X103602Y096398
X103327Y096398
X102539Y096378
X102323Y096142
X102028Y096043
X101969Y095039
X103543Y094921
X102126Y094764
X103543Y094547
X102953Y093898
X103543Y093898
X103543Y093504
X102953Y093504
X103543Y093031
X103543Y09252
X101772Y092047
X10378Y090276
X102087Y090236
X102677Y090236
X103622Y089803
X102087Y089685
X102677Y08937
X102087Y089134
X103622Y089134
X102677Y088937
X102087Y088583
X103622Y088504
X102677Y08811
X102126Y087835
X102677Y087559
X101732Y087323
X103071Y087244
X102244Y087126
X101732Y087047
X102756Y08689
X102441Y086535
X101693Y086496
X102087Y086142
X101732Y085709
X101535Y085236
X104016Y08815
X104567Y08874
X104094Y08878
X105039Y089331
X104449Y08937
X105413Y089803
X104862Y089823
X104252Y089843
X10563Y090276
X105157Y090276
X104606Y090276
X106063Y090669
X105787Y090984
X104961Y092047
X104606Y092047
X105157Y092283
X104724Y09252
X104055Y09252
X104055Y093031
X104646Y09315
X104055Y093504
X104409Y093543
X105039Y093819
X105315Y093819
X104646Y093858
X104055Y093898
X105157Y094409
X104764Y094528
X104075Y094547
X104094Y094921
X104862Y096417
X104862Y096693
X105512Y096831
X105177Y096831
X105827Y096831
X104016Y096949
X104862Y096988
X105354Y097067
X105669Y097067
X104783Y097283
X10561Y097539
X105709Y097835
X105709Y09815
X105709Y098445
X105709Y09876
X104646Y098799
X104921Y098858
X105709Y099055
X104646Y099075
X105709Y09935
X104646Y09935
X105039Y099449
X105709Y099646
X105709Y099941
X105709Y100236
X105709Y100531
X105709Y100827
X105709Y101102
X105709Y101378
X105354Y101516
X105118Y101673
X105315Y10189
X105748Y10189
X106122Y102028
X105197Y102165
X106122Y102303
X106122Y102579
X104331Y102638
X106122Y102854
X104331Y102913
X106122Y10315
X104331Y103189
X106122Y103465
X104331Y103543
X106122Y10376
X104016Y103976
X105197Y103976
X104409Y103976
X105591Y103976
X104803Y103976
X104213Y104173
X105394Y104173
X105Y104173
X104606Y104173
T2C.01969F095S3
X097008Y102047
X097756Y102146
X096378Y10252
X100236Y10315
X102421Y101614
X101575Y101614
X103701Y099213
X103209Y099213
X104193Y099213
X103701Y098819
X103209Y098819
X104193Y098819
M30
