*
*
G04 PADS 9.3 Build Number: 433611 generated Gerber (RS-274-X) file*
G04 PC Version=2.1*
*
%IN "K51 REV2.pcb"*%
*
%MOIN*%
*
%FSLAX35Y35*%
*
*
*
*
G04 PC Standard Apertures*
*
*
G04 Thermal Relief Aperture macro.*
%AMTER*
1,1,$1,0,0*
1,0,$1-$2,0,0*
21,0,$3,$4,0,0,45*
21,0,$3,$4,0,0,135*
%
*
*
G04 Annular Aperture macro.*
%AMANN*
1,1,$1,0,0*
1,0,$2,0,0*
%
*
*
G04 Odd Aperture macro.*
%AMODD*
1,1,$1,0,0*
1,0,$1-0.005,0,0*
%
*
*
G04 PC Custom Aperture Macros*
*
*
*
*
*
*
G04 PC Aperture Table*
*
%ADD136C,0.00394*%
%ADD137C,0.001*%
%ADD541R,0.05945X0.0437*%
%ADD542R,0.01614X0.06339*%
%ADD543R,0.06339X0.01614*%
%ADD547O,0.02795X0.04764*%
%ADD548R,0.02795X0.04764*%
%ADD549R,0.03189X0.06732*%
%ADD550R,0.08701X0.12244*%
%ADD551R,0.06732X0.03189*%
%ADD552R,0.12244X0.08701*%
%ADD554O,0.12244X0.24055*%
%ADD555R,0.03976X0.03583*%
%ADD556R,0.03583X0.03976*%
%ADD558O,0.02795X0.06732*%
%ADD559R,0.02795X0.06732*%
%ADD560R,0.14213X0.08307*%
%ADD561R,0.05945X0.05945*%
%ADD562R,0.0437X0.05945*%
%ADD563C,0.0437*%
%ADD564C,0.02402*%
%ADD582R,0.02795X0.02795*%
%ADD583R,0.06339X0.14213*%
%ADD584O,0.14213X0.05551*%
%ADD585C,0.03583*%
*
*
*
*
G04 PC Circuitry*
G04 Layer Name K51 REV2.pcb - circuitry*
%LPD*%
*
*
G04 PC Custom Flashes*
G04 Layer Name K51 REV2.pcb - flashes*
%LPD*%
*
*
G04 PC Circuitry*
G04 Layer Name K51 REV2.pcb - circuitry*
%LPD*%
*
G54D136*
G01X1062945Y1043906D02*
Y849063D01*
X1050946Y812066D02*
G75*
G03X1062945Y849106I-51169J37040D01*
G01X1050909Y812016D02*
X1024382D01*
Y804902*
X975563*
Y812012*
X949020*
X936965Y849083D02*
G03X949002Y812036I62692J-109D01*
G01X936965Y849035D02*
Y1043906D01*
X1062945*
X1054921Y990157D02*
G03X1054921I-2165J0D01*
G01X1004331Y1000000D02*
G03X1004331I-4331J0D01*
G01X949409Y990157D02*
G03X949409I-2165J0D01*
G01X1014961Y894331D02*
G03X1014961I-14961J0D01*
G01X1008071Y819528D02*
G03X1008071I-8071J0D01*
G54D137*
G54D541*
G01X944094Y897835D03*
Y889961D03*
Y876772D03*
Y884646D03*
X987008Y1016535D03*
Y1008661D03*
X979921D03*
Y1016535D03*
G54D542*
X985236Y920472D03*
X987205D03*
X989173D03*
X991142D03*
X993110D03*
X995079D03*
X997047D03*
X999016D03*
X1000984D03*
X1002953D03*
X1004921D03*
X1006890D03*
Y955906D03*
X1004921D03*
X1002953D03*
X1000984D03*
X999016D03*
X997047D03*
X995079D03*
X993110D03*
X991142D03*
X989173D03*
X987205D03*
X985236D03*
G54D543*
X1013780Y927362D03*
Y929331D03*
Y931299D03*
Y933268D03*
Y935236D03*
Y937205D03*
Y939173D03*
Y941142D03*
Y943110D03*
Y945079D03*
Y947047D03*
Y949016D03*
X978346D03*
Y947047D03*
Y945079D03*
Y943110D03*
Y941142D03*
Y939173D03*
Y937205D03*
Y935236D03*
Y933268D03*
Y931299D03*
Y929331D03*
Y927362D03*
G54D547*
X1024213Y1001969D03*
X940748Y944094D03*
G54D548*
X1020472Y1001969D03*
X1016732D03*
Y991732D03*
X1024213D03*
X944488Y944094D03*
X948228D03*
Y954331D03*
X940748D03*
G54D549*
X961122Y1017913D03*
X956201D03*
X1038878Y964370D03*
X1043799D03*
Y1017913D03*
X1038878D03*
X1007500D03*
X1002500D03*
X997500D03*
X992500D03*
G54D550*
X972146Y1029331D03*
X945177D03*
X1027854Y952953D03*
X1054823D03*
Y1029331D03*
X1027854D03*
X1016969D03*
X983031D03*
G54D551*
X945866Y903839D03*
Y908760D03*
Y866043D03*
Y870965D03*
G54D552*
X957283Y892815D03*
Y919783D03*
Y855020D03*
Y881988D03*
G54D554*
X944882Y974409D03*
X961417D03*
G54D555*
X981299Y995276D03*
X985039Y1003150D03*
X988780Y995276D03*
G54D556*
X980709Y980906D03*
X972835Y984646D03*
X980709Y988386D03*
X975197Y883661D03*
X967323Y887402D03*
X975197Y891142D03*
Y845472D03*
X967323Y849213D03*
X975197Y852953D03*
G54D558*
X1029528Y979528D03*
G54D559*
X1034528D03*
X1039528D03*
X1044528D03*
Y1000787D03*
X1039528D03*
X1034528D03*
X1029528D03*
G54D560*
X1037008Y990157D03*
G54D561*
X953543Y991732D03*
X965354D03*
G54D562*
X974016Y1014961D03*
X966142D03*
X942913D03*
X950787D03*
G54D563*
X1060236Y1041339D03*
G54D564*
X1053150Y974803D03*
X995669Y1010236D03*
X999213Y981496D03*
X977559Y1038976D03*
X1027953Y972835D03*
X1033858Y1010630D03*
X1027953D03*
X1000394Y974803D03*
Y978150D03*
X1053150Y994488D03*
X1029134Y924803D03*
Y930315D03*
X988976Y968898D03*
X995669Y1006693D03*
X991339Y972835D03*
X992913Y962992D03*
Y987402D03*
X956693Y938583D03*
X982677Y902362D03*
G54D582*
X968110Y1009449D03*
Y1005512D03*
X942520Y993701D03*
Y989764D03*
X1025197Y922441D03*
X1021260D03*
X1020079Y977559D03*
X1024016D03*
X1020079Y974016D03*
X1024016D03*
X1021260Y933858D03*
X1025197D03*
X1049213Y1008661D03*
X1053150D03*
X1011417Y1011417D03*
X1007480D03*
X967323Y895669D03*
X971260D03*
X967323Y857480D03*
X971260D03*
X1049213Y1012205D03*
X1053150D03*
X947638Y959449D03*
X943701D03*
X1040157Y972835D03*
X1044094D03*
X1024016Y986614D03*
X1020079D03*
Y1007087D03*
X1024016D03*
X1049213Y985433D03*
X1053150D03*
Y998031D03*
X1049213D03*
X989370Y987402D03*
X985433D03*
X979528Y887795D03*
Y891732D03*
X983465Y883071D03*
X979528D03*
X1032283Y972835D03*
X1036220D03*
X1049213Y1005118D03*
X1053150D03*
Y1001575D03*
X1049213D03*
Y978346D03*
X1053150D03*
X968898Y929528D03*
Y933465D03*
X1049213Y981890D03*
X1053150D03*
X989370Y983858D03*
X985433D03*
Y980315D03*
X989370D03*
X975000Y999409D03*
Y1003346D03*
X1025197Y937402D03*
X1021260D03*
X971457Y1003346D03*
Y999409D03*
X1021260Y930315D03*
X1025197D03*
X985433Y990945D03*
X989370D03*
X983465Y844882D03*
X979528D03*
Y849606D03*
Y853543D03*
X1021260Y926772D03*
X1025197D03*
X948031Y931102D03*
X951969D03*
X948031Y934646D03*
X951969D03*
X944488Y938189D03*
X940551D03*
X948031D03*
X951969D03*
X1024016Y981102D03*
X1020079D03*
G54D583*
X962008Y1003543D03*
X944291D03*
G54D584*
X958268Y944409D03*
Y954016D03*
G54D585*
X1015354Y962992D03*
X984646Y962598D03*
X979921D03*
X1010630Y962992D03*
X1051772Y927362D03*
Y933268D03*
G74*
X0Y0D02*
M02*
