*
*
G04 PADS 9.3 Build Number: 433611 generated Gerber (RS-274-X) file*
G04 PC Version=2.1*
*
%IN "K51 REV2.pcb"*%
*
%MOIN*%
*
%FSLAX35Y35*%
*
*
*
*
G04 PC Standard Apertures*
*
*
G04 Thermal Relief Aperture macro.*
%AMTER*
1,1,$1,0,0*
1,0,$1-$2,0,0*
21,0,$3,$4,0,0,45*
21,0,$3,$4,0,0,135*
%
*
*
G04 Annular Aperture macro.*
%AMANN*
1,1,$1,0,0*
1,0,$2,0,0*
%
*
*
G04 Odd Aperture macro.*
%AMODD*
1,1,$1,0,0*
1,0,$1-0.005,0,0*
%
*
*
G04 PC Custom Aperture Macros*
*
*
*
*
*
*
G04 PC Aperture Table*
*
%ADD136C,0.00394*%
%ADD137C,0.001*%
%ADD138C,0.01575*%
%ADD262C,0.00787*%
*
*
*
*
G04 PC Circuitry*
G04 Layer Name K51 REV2.pcb - circuitry*
%LPD*%
*
*
G04 PC Custom Flashes*
G04 Layer Name K51 REV2.pcb - flashes*
%LPD*%
*
*
G04 PC Circuitry*
G04 Layer Name K51 REV2.pcb - circuitry*
%LPD*%
*
G54D136*
G01X940945Y887598D02*
Y900197D01*
X947244*
Y887598*
X940945*
X947244Y893110D02*
X940945D01*
X947244Y887008D02*
Y874409D01*
X940945*
Y887008*
X947244*
X940945Y881496D02*
X947244D01*
X974409Y916535D02*
Y959843D01*
X1017717*
Y916535*
X974409*
X969685Y1011024D02*
Y1003937D01*
X966535*
Y1011024*
X969685*
Y1007480D02*
X968504D01*
X966535D02*
X967717D01*
X968504Y1007874D02*
Y1007087D01*
X967717Y1007874D02*
Y1007087D01*
X965748Y996063D02*
X940551D01*
Y1011024*
X965748*
Y996063*
X953150D02*
Y1001969D01*
Y1011024D02*
Y1005118D01*
X955512Y1001969D02*
X950787D01*
X955512Y1005118D02*
X950787D01*
X963780Y1013780D02*
X953543D01*
Y1020866*
X940157*
Y1036220*
X977165*
Y1020866*
X963780*
Y1013780*
X1036220Y968504D02*
X1046457D01*
Y961417*
X1059843*
Y946063*
X1022835*
Y961417*
X1036220*
Y968504*
X1046457Y1013780D02*
X1036220D01*
Y1020866*
X1022835*
Y1036220*
X1059843*
Y1020866*
X1046457*
Y1013780*
X941732Y901181D02*
Y911417D01*
X948819*
Y924803*
X964173*
Y887795*
X948819*
Y901181*
X941732*
Y863386D02*
Y873622D01*
X948819*
Y887008*
X964173*
Y850000*
X948819*
Y863386*
X941732*
X1009843Y1013780D02*
X990157D01*
Y1020866*
X977953*
Y1036220*
X1022047*
Y1020866*
X1009843*
Y1013780*
X938189Y961811D02*
Y987008D01*
X968110*
Y961811*
X938189*
X970866Y982283D02*
Y987008D01*
X974409*
Y990551*
X982677*
Y978740*
X974409*
Y982283*
X970866*
X982677Y1005118D02*
X987402D01*
Y1001575*
X990945*
Y993307*
X979134*
Y1001575*
X982677*
Y1005118*
X1027559Y975591D02*
Y1004724D01*
X1046457*
Y975591*
X1027559*
X968898Y987992D02*
X950000D01*
Y995472*
X968898*
Y987992*
X961417Y995472D02*
Y987992D01*
X963780Y1018110D02*
X976378D01*
Y1011811*
X963780*
Y1018110*
X969291Y1011811D02*
Y1018110D01*
X953150Y1011811D02*
X940551D01*
Y1018110*
X953150*
Y1011811*
X947638Y1018110D02*
Y1011811D01*
X944094Y995276D02*
Y988189D01*
X940945*
Y995276*
X944094*
Y991732D02*
X942913D01*
X940945D02*
X942126D01*
X942913Y992126D02*
Y991339D01*
X942126Y992126D02*
Y991339D01*
X1054724Y974803D02*
G75*
G03X1054724I-1574J0D01*
G01X997244Y1010236D02*
G03X997244I-1575J0D01*
G01X1000787Y981496D02*
G03X1000787I-1574J0D01*
G01X979134Y1038976D02*
G03X979134I-1575J0D01*
G01X1029528Y972835D02*
G03X1029528I-1575J0D01*
G01X1035433Y1010630D02*
G03X1035433I-1575J0D01*
G01X1029528D02*
G03X1029528I-1575J0D01*
G01X1001969Y974803D02*
G03X1001969I-1575J0D01*
G01Y978150D02*
G03X1001969I-1575J0D01*
G01X1054724Y994488D02*
G03X1054724I-1574J0D01*
G01X1062598Y1041339D02*
G03X1062598I-2362J0D01*
G01X1030709Y924803D02*
G03X1030709I-1575J0D01*
G01Y930315D02*
G03X1030709I-1575J0D01*
G01X990551Y968898D02*
G03X990551I-1575J0D01*
G01X997244Y1006693D02*
G03X997244I-1575J0D01*
G01X1025984Y1004724D02*
Y988976D01*
X1014961*
Y1004724*
X1025984*
X965354Y885039D02*
Y889764D01*
X968898*
Y893307*
X977165*
Y881496*
X968898*
Y885039*
X965354*
Y846850D02*
Y851575D01*
X968898*
Y855118*
X977165*
Y843307*
X968898*
Y846850*
X965354*
X983858Y1006299D02*
Y1018898D01*
X990157*
Y1006299*
X983858*
X988583Y1012598D02*
X990157D01*
X988583Y1013189D02*
Y1012008D01*
X985433*
Y1013189*
X988583*
X985433Y1012598D02*
X983858D01*
X992913Y972835D02*
G03X992913I-1574J0D01*
G01X994488Y962992D02*
G03X994488I-1575J0D01*
G01Y987402D02*
G03X994488I-1575J0D01*
G01X958268Y938583D02*
G03X958268I-1575J0D01*
G01X984252Y902362D02*
G03X984252I-1575J0D01*
G01X938976Y941339D02*
Y957087D01*
X950000*
Y941339*
X938976*
X1026772Y920866D02*
X1019685D01*
Y924016*
X1026772*
Y920866*
X1023228D02*
Y922047D01*
Y924016D02*
Y922835D01*
X1023622Y922047D02*
X1022835D01*
X1023622Y922835D02*
X1022835D01*
X1018504Y979134D02*
X1025591D01*
Y975984*
X1018504*
Y979134*
X1022047D02*
Y977953D01*
Y975984D02*
Y977165D01*
X1021654Y977953D02*
X1022441D01*
X1021654Y977165D02*
X1022441D01*
X1018504Y975591D02*
X1025591D01*
Y972441*
X1018504*
Y975591*
X1022047D02*
Y974409D01*
Y972441D02*
Y973622D01*
X1021654Y974409D02*
X1022441D01*
X1021654Y973622D02*
X1022441D01*
X1019685Y935433D02*
X1026772D01*
Y932283*
X1019685*
Y935433*
X1023228D02*
Y934252D01*
Y932283D02*
Y933465D01*
X1022835Y934252D02*
X1023622D01*
X1022835Y933465D02*
X1023622D01*
X1047638Y1010236D02*
X1054724D01*
Y1007087*
X1047638*
Y1010236*
X1051181D02*
Y1009055D01*
Y1007087D02*
Y1008268D01*
X1050787Y1009055D02*
X1051575D01*
X1050787Y1008268D02*
X1051575D01*
X1012992Y1009843D02*
X1005906D01*
Y1012992*
X1012992*
Y1009843*
X1009449D02*
Y1011024D01*
Y1012992D02*
Y1011811D01*
X1009843Y1011024D02*
X1009055D01*
X1009843Y1011811D02*
X1009055D01*
X965748Y897244D02*
X972835D01*
Y894094*
X965748*
Y897244*
X969291D02*
Y896063D01*
Y894094D02*
Y895276D01*
X968898Y896063D02*
X969685D01*
X968898Y895276D02*
X969685D01*
X965748Y859055D02*
X972835D01*
Y855906*
X965748*
Y859055*
X969291D02*
Y857874D01*
Y855906D02*
Y857087D01*
X968898Y857874D02*
X969685D01*
X968898Y857087D02*
X969685D01*
X1047638Y1013780D02*
X1054724D01*
Y1010630*
X1047638*
Y1013780*
X1051181D02*
Y1012598D01*
Y1010630D02*
Y1011811D01*
X1050787Y1012598D02*
X1051575D01*
X1050787Y1011811D02*
X1051575D01*
X949213Y957874D02*
X942126D01*
Y961024*
X949213*
Y957874*
X945669D02*
Y959055D01*
Y961024D02*
Y959843D01*
X946063Y959055D02*
X945276D01*
X946063Y959843D02*
X945276D01*
X1038583Y974409D02*
X1045669D01*
Y971260*
X1038583*
Y974409*
X1042126D02*
Y973228D01*
Y971260D02*
Y972441D01*
X1041732Y973228D02*
X1042520D01*
X1041732Y972441D02*
X1042520D01*
X1025591Y985039D02*
X1018504D01*
Y988189*
X1025591*
Y985039*
X1022047D02*
Y986220D01*
Y988189D02*
Y987008D01*
X1022441Y986220D02*
X1021654D01*
X1022441Y987008D02*
X1021654D01*
X1018504Y1008661D02*
X1025591D01*
Y1005512*
X1018504*
Y1008661*
X1022047D02*
Y1007480D01*
Y1005512D02*
Y1006693D01*
X1021654Y1007480D02*
X1022441D01*
X1021654Y1006693D02*
X1022441D01*
X1047638Y987008D02*
X1054724D01*
Y983858*
X1047638*
Y987008*
X1051181D02*
Y985827D01*
Y983858D02*
Y985039D01*
X1050787Y985827D02*
X1051575D01*
X1050787Y985039D02*
X1051575D01*
X1054724Y996457D02*
X1047638D01*
Y999606*
X1054724*
Y996457*
X1051181D02*
Y997638D01*
Y999606D02*
Y998425D01*
X1051575Y997638D02*
X1050787D01*
X1051575Y998425D02*
X1050787D01*
X990945Y985827D02*
X983858D01*
Y988976*
X990945*
Y985827*
X987402D02*
Y986614D01*
Y988976D02*
Y988189D01*
X987795Y986614D02*
X987008D01*
Y988189*
X987795*
Y986614*
X977953Y886220D02*
Y893307D01*
X981102*
Y886220*
X977953*
Y889764D02*
X978740D01*
X981102D02*
X980315D01*
X978740Y889370D02*
Y890157D01*
X980315*
Y889370*
X978740*
X985039Y881496D02*
X977953D01*
Y884646*
X985039*
Y881496*
X981496D02*
Y882283D01*
Y884646D02*
Y883858D01*
X981890Y882283D02*
X981102D01*
Y883858*
X981890*
Y882283*
X1030709Y974409D02*
X1037795D01*
Y971260*
X1030709*
Y974409*
X1034252D02*
Y973622D01*
Y971260D02*
Y972047D01*
X1033858Y973622D02*
X1034646D01*
Y972047*
X1033858*
Y973622*
X1047638Y1006693D02*
X1054724D01*
Y1003543*
X1047638*
Y1006693*
X1051181D02*
Y1005906D01*
Y1003543D02*
Y1004331D01*
X1050787Y1005906D02*
X1051575D01*
Y1004331*
X1050787*
Y1005906*
X1054724Y1000000D02*
X1047638D01*
Y1003150*
X1054724*
Y1000000*
X1051181D02*
Y1000787D01*
Y1003150D02*
Y1002362D01*
X1051575Y1000787D02*
X1050787D01*
Y1002362*
X1051575*
Y1000787*
X1047638Y979921D02*
X1054724D01*
Y976772*
X1047638*
Y979921*
X1051181D02*
Y979134D01*
Y976772D02*
Y977559D01*
X1050787Y979134D02*
X1051575D01*
Y977559*
X1050787*
Y979134*
X967323Y927953D02*
Y935039D01*
X970472*
Y927953*
X967323*
Y931496D02*
X968110D01*
X970472D02*
X969685D01*
X968110Y931102D02*
Y931890D01*
X969685*
Y931102*
X968110*
X1047638Y983465D02*
X1054724D01*
Y980315*
X1047638*
Y983465*
X1051181D02*
Y982677D01*
Y980315D02*
Y981102D01*
X1050787Y982677D02*
X1051575D01*
Y981102*
X1050787*
Y982677*
X990945Y982283D02*
X983858D01*
Y985433*
X990945*
Y982283*
X987402D02*
Y983071D01*
Y985433D02*
Y984646D01*
X987795Y983071D02*
X987008D01*
Y984646*
X987795*
Y983071*
X983858Y981890D02*
X990945D01*
Y978740*
X983858*
Y981890*
X987402D02*
Y981102D01*
Y978740D02*
Y979528D01*
X987008Y981102D02*
X987795D01*
Y979528*
X987008*
Y981102*
X973425Y997835D02*
Y1004921D01*
X976575*
Y997835*
X973425*
Y1001378D02*
X974213D01*
X976575D02*
X975787D01*
X974213Y1000984D02*
Y1001772D01*
X975787*
Y1000984*
X974213*
X1026772Y935827D02*
X1019685D01*
Y938976*
X1026772*
Y935827*
X1023228D02*
Y936614D01*
Y938976D02*
Y938189D01*
X1023622Y936614D02*
X1022835D01*
Y938189*
X1023622*
Y936614*
X973031Y1004921D02*
Y997835D01*
X969882*
Y1004921*
X973031*
Y1001378D02*
X972244D01*
X969882D02*
X970669D01*
X972244Y1001772D02*
Y1000984D01*
X970669*
Y1001772*
X972244*
X1019685Y931890D02*
X1026772D01*
Y928740*
X1019685*
Y931890*
X1023228D02*
Y931102D01*
Y928740D02*
Y929528D01*
X1022835Y931102D02*
X1023622D01*
Y929528*
X1022835*
Y931102*
X983858Y992520D02*
X990945D01*
Y989370*
X983858*
Y992520*
X987402D02*
Y991732D01*
Y989370D02*
Y990157D01*
X987008Y991732D02*
X987795D01*
Y990157*
X987008*
Y991732*
X985039Y843307D02*
X977953D01*
Y846457*
X985039*
Y843307*
X981496D02*
Y844094D01*
Y846457D02*
Y845669D01*
X981890Y844094D02*
X981102D01*
Y845669*
X981890*
Y844094*
X977953Y848031D02*
Y855118D01*
X981102*
Y848031*
X977953*
Y851575D02*
X978740D01*
X981102D02*
X980315D01*
X978740Y851181D02*
Y851969D01*
X980315*
Y851181*
X978740*
X1019685Y928346D02*
X1026772D01*
Y925197*
X1019685*
Y928346*
X1023228D02*
Y927559D01*
Y925197D02*
Y925984D01*
X1022835Y927559D02*
X1023622D01*
Y925984*
X1022835*
Y927559*
X946457Y932677D02*
X953543D01*
Y929528*
X946457*
Y932677*
X950000D02*
Y931496D01*
Y929528D02*
Y930709D01*
X949606Y931496D02*
X950394D01*
X949606Y930709D02*
X950394D01*
X946457Y936220D02*
X953543D01*
Y933071*
X946457*
Y936220*
X950000D02*
Y935039D01*
Y933071D02*
Y934252D01*
X949606Y935039D02*
X950394D01*
X949606Y934252D02*
X950394D01*
X965748Y941339D02*
X950787D01*
Y957087*
X965748*
Y941339*
X946063Y936614D02*
X938976D01*
Y939764*
X946063*
Y936614*
X942520D02*
Y937402D01*
Y939764D02*
Y938976D01*
X942913Y937402D02*
X942126D01*
Y938976*
X942913*
Y937402*
X946457Y939764D02*
X953543D01*
Y936614*
X946457*
Y939764*
X950000D02*
Y938976D01*
Y936614D02*
Y937402D01*
X949606Y938976D02*
X950394D01*
Y937402*
X949606*
Y938976*
X1025591Y979528D02*
X1018504D01*
Y982677*
X1025591*
Y979528*
X1022047D02*
Y980315D01*
Y982677D02*
Y981890D01*
Y980315D02*
X1021654Y980709D01*
X1022441Y981496*
X1022047Y981890*
X1017323Y962992D02*
G03X1017323I-1969J0D01*
G01X986614Y962598D02*
G03X986614I-1968J0D01*
G01X981890D02*
G03X981890I-1969J0D01*
G01X1012598Y962992D02*
G03X1012598I-1968J0D01*
G01X1053740Y927362D02*
G03X1053740I-1968J0D01*
G01Y933268D02*
G03X1053740I-1968J0D01*
G01X983071Y1018898D02*
Y1006299D01*
X976772*
Y1018898*
X983071*
X978346Y1012598D02*
X976772D01*
X978346Y1012008D02*
Y1013189D01*
X981496*
Y1012008*
X978346*
X981496Y1012598D02*
X983071D01*
X1055118Y934473D02*
Y931890D01*
Y934473D02*
X1055923D01*
X1056192Y934350*
X1056281Y934227*
X1056371Y933981*
Y933735*
X1056281Y933489*
X1056192Y933366*
X1055923Y933243*
X1055118*
X1055744D02*
X1056371Y931890D01*
X1057176Y934473D02*
X1058429Y931890D01*
Y934473D02*
X1057176Y931890D01*
X1055744Y928568D02*
Y925984D01*
X1055118Y928568D02*
X1056371D01*
X1057176D02*
X1058429Y925984D01*
Y928568D02*
X1057176Y925984D01*
X1031496Y925812D02*
X1032212Y923228D01*
X1032928Y925812D02*
X1032212Y923228D01*
X1033733Y925812D02*
Y923228D01*
Y925812D02*
X1034538D01*
X1034807Y925689*
X1034896Y925566*
X1034986Y925320*
Y925074*
X1034896Y924828*
X1034807Y924705*
X1034538Y924582*
X1033733*
X1034359D02*
X1034986Y923228D01*
X1035791Y925812D02*
Y923228D01*
Y925812D02*
X1036954D01*
X1035791Y924582D02*
X1036507D01*
X1035791Y923228D02*
X1036954D01*
X1037759Y925812D02*
Y923228D01*
Y925812D02*
X1038923D01*
X1037759Y924582D02*
X1038475D01*
X1039728Y922736D02*
X1041607D01*
X1042144Y925812D02*
Y923228D01*
Y925812D02*
X1042949D01*
X1043218Y925689*
X1043307Y925566*
X1043397Y925320*
Y924951*
X1043307Y924705*
X1043218Y924582*
X1042949Y924459*
X1042144*
X1044202Y925812D02*
X1044649Y923228D01*
X1045097Y925812D02*
X1044649Y923228D01*
X1045097Y925812D02*
X1045544Y923228D01*
X1045991Y925812D02*
X1045544Y923228D01*
X1046797Y925812D02*
Y923228D01*
Y925812D02*
X1047513Y923228D01*
X1048228Y925812D02*
X1047513Y923228D01*
X1048228Y925812D02*
Y923228D01*
X1031496Y931718D02*
X1032212Y929134D01*
X1032928Y931718D02*
X1032212Y929134D01*
X1033733Y931718D02*
Y929134D01*
Y931718D02*
X1034538D01*
X1034807Y931594*
X1034896Y931471*
X1034986Y931225*
Y930979*
X1034896Y930733*
X1034807Y930610*
X1034538Y930487*
X1033733*
X1034359D02*
X1034986Y929134D01*
X1035791Y931718D02*
Y929134D01*
Y931718D02*
X1036954D01*
X1035791Y930487D02*
X1036507D01*
X1035791Y929134D02*
X1036954D01*
X1037759Y931718D02*
Y929134D01*
Y931718D02*
X1038923D01*
X1037759Y930487D02*
X1038475D01*
X1039728Y928642D02*
X1041607D01*
X1042144Y931718D02*
X1042860Y929134D01*
X1043576Y931718D02*
X1042860Y929134D01*
X1044918Y931718D02*
X1044739Y931594D01*
X1044560Y931348*
X1044470Y931102*
X1044381Y930733*
Y930118*
X1044470Y929749*
X1044560Y929503*
X1044739Y929257*
X1044918Y929134*
X1045276*
X1045455Y929257*
X1045634Y929503*
X1045634D02*
X1045723Y929749D01*
X1045812Y930118*
Y930733*
X1045723Y931102*
X1045634Y931348*
X1045634D02*
X1045455Y931594D01*
X1045276Y931718*
X1044918*
X1046618D02*
Y929134D01*
X1047691*
X1049123Y931718D02*
Y929134D01*
X1048497Y931718D02*
X1049749D01*
X1014746Y968332D02*
X1015730D01*
X1015193Y967347*
X1015462*
X1015641Y967224*
X1015730Y967101*
X1015820Y966732*
Y966486*
X1015730Y966117*
X1015551Y965871*
X1015283Y965748*
X1015014*
X1014746Y965871*
X1014656Y965994*
X1014567Y966240*
X1016714Y965994D02*
X1016625Y965871D01*
X1016714Y965748*
X1016804Y965871*
X1016714Y965994*
X1018146Y968332D02*
X1017878Y968209D01*
X1017699Y967840*
X1017609Y967224*
Y966855*
X1017699Y966240*
X1017878Y965871*
X1018146Y965748*
X1018325*
X1018593Y965871*
X1018772Y966240*
X1018862Y966855*
Y967224*
X1018772Y967840*
X1018593Y968209*
X1018325Y968332*
X1018146*
X1008429Y967717D02*
X1008339Y967963D01*
X1008160Y968209*
X1007981Y968332*
X1007623*
X1007445Y968209*
X1007266Y967963*
X1007176Y967717*
X1007087Y967347*
Y966732*
X1007176Y966363*
X1007266Y966117*
X1007445Y965871*
X1007623Y965748*
X1007981*
X1008160Y965871*
X1008339Y966117*
X1008429Y966363*
Y966732*
X1007981D02*
X1008429D01*
X1009234Y968332D02*
Y965748D01*
Y968332D02*
X1010487Y965748D01*
Y968332D02*
Y965748D01*
X1011292Y968332D02*
Y965748D01*
Y968332D02*
X1011918D01*
X1012187Y968209*
X1012366Y967963*
X1012455Y967717*
X1012545Y967347*
Y966732*
X1012455Y966363*
X1012366Y966117*
X1012187Y965871*
X1011918Y965748*
X1011292*
X995276Y964395D02*
Y961811D01*
Y964395D02*
X996439D01*
X995276Y963164D02*
X995991D01*
X995276Y961811D02*
X996439D01*
X997244Y964395D02*
Y961811D01*
Y964395D02*
X997960Y961811D01*
X998676Y964395D02*
X997960Y961811D01*
X998676Y964395D02*
Y961811D01*
X1000734Y964026D02*
X1000555Y964272D01*
X1000286Y964395*
X999928*
X999660Y964272*
X999481Y964026*
Y963780*
X999571Y963533*
X999660Y963410*
X999839Y963287*
X1000376Y963041*
X1000555Y962918*
X1000644Y962795*
X1000734Y962549*
Y962180*
X1000555Y961934*
X1000286Y961811*
X999928*
X999660Y961934*
X999481Y962180*
X1001539Y961319D02*
X1003418D01*
X1005297Y963780D02*
X1005208Y964026D01*
X1005029Y964272*
X1004850Y964395*
X1004492*
X1004313Y964272*
X1004134Y964026*
X1004044Y963780*
X1003955Y963410*
Y962795*
X1004044Y962426*
X1004134Y962180*
X1004313Y961934*
X1004492Y961811*
X1004850*
X1005029Y961934*
X1005208Y962180*
X1005297Y962426*
X1006102Y964395D02*
Y961811D01*
X1007355Y964395D02*
X1006102Y962672D01*
X1006550Y963287D02*
X1007355Y961811D01*
X991339Y969906D02*
Y967323D01*
Y969906D02*
X992144D01*
X992412Y969783*
X992502Y969660*
X992591Y969414*
Y969168*
X992502Y968922*
X992412Y968799*
X992144Y968676*
X991339D02*
X992144D01*
X992412Y968553*
X992502Y968430*
X992591Y968184*
Y967815*
X992502Y967569*
X992412Y967446*
X992144Y967323*
X991339*
X993933Y969906D02*
X993754Y969783D01*
X993576Y969537*
X993486Y969291*
X993397Y968922*
Y968307*
X993486Y967938*
X993576Y967692*
X993754Y967446*
X993933Y967323*
X994291*
X994470Y967446*
X994649Y967692*
X994739Y967938*
X994828Y968307*
Y968922*
X994739Y969291*
X994649Y969537*
X994470Y969783*
X994291Y969906*
X993933*
X996886Y969537D02*
X996707Y969783D01*
X996439Y969906*
X996081*
X995812Y969783*
X995634Y969537*
X995634D02*
Y969291D01*
X995634D02*
X995723Y969045D01*
X995812Y968922*
X995991Y968799*
X996528Y968553*
X996707Y968430*
X996797Y968307*
X996886Y968061*
Y967692*
X996707Y967446*
X996439Y967323*
X996081*
X995812Y967446*
X995634Y967692*
X998318Y969906D02*
Y967323D01*
X997691Y969906D02*
X998944D01*
X999749Y966831D02*
X1001628D01*
X1002165Y969906D02*
Y967323D01*
Y969906D02*
X1002971D01*
X1003239Y969783*
X1003329Y969660*
X1003418Y969414*
Y969045*
X1003329Y968799*
X1003239Y968676*
X1002971Y968553*
X1002165*
X975984Y973844D02*
Y971260D01*
Y973844D02*
X977147D01*
X975984Y972613D02*
X976700D01*
X975984Y971260D02*
X977147D01*
X977953Y973844D02*
Y971260D01*
Y973844D02*
X978669Y971260D01*
X979384Y973844D02*
X978669Y971260D01*
X979384Y973844D02*
Y971260D01*
X981442Y973474D02*
X981263Y973720D01*
X980995Y973844*
X980637*
X980369Y973720*
X980190Y973474*
Y973228*
X980279Y972982*
X980369Y972859*
X980548Y972736*
X981084Y972490*
X981263Y972367*
X981353Y972244*
X981442Y971998*
Y971629*
X981263Y971383*
X980995Y971260*
X980637*
X980369Y971383*
X980190Y971629*
X982248Y970768D02*
X984127D01*
X984664Y973844D02*
Y971260D01*
X985469Y973844D02*
Y971260D01*
Y973844D02*
X986185Y971260D01*
X986901Y973844D02*
X986185Y971260D01*
X986901Y973844D02*
Y971260D01*
X987706Y973844D02*
Y971260D01*
Y973844D02*
X988511D01*
X988780Y973720*
X988869Y973597*
X988958Y973351*
Y972982*
X988869Y972736*
X988780Y972613*
X988511Y972490*
X987706*
X984324Y967569D02*
X984145Y967815D01*
X983876Y967938*
X983518*
X983250Y967815*
X983071Y967569*
Y967323*
X983160Y967077*
X983250Y966954*
X983429Y966831*
X983966Y966585*
X984145Y966462*
X984234Y966339*
X984324Y966093*
Y965723*
X984145Y965477*
X983876Y965354*
X983518*
X983250Y965477*
X983071Y965723*
X985129Y967938D02*
Y965354D01*
Y967938D02*
X985755D01*
X986024Y967815*
X986203Y967569*
X986292Y967323*
X986382Y966954*
Y966339*
X986292Y965969*
X986203Y965723*
X986024Y965477*
X985755Y965354*
X985129*
X979599Y967569D02*
X979420Y967815D01*
X979152Y967938*
X978794*
X978525Y967815*
X978346Y967569*
Y967323*
X978436Y967077*
X978525Y966954*
X978704Y966831*
X979241Y966585*
X979420Y966462*
X979510Y966339*
X979599Y966093*
Y965723*
X979420Y965477*
X979152Y965354*
X978794*
X978525Y965477*
X978346Y965723*
X981747Y967323D02*
X981657Y967569D01*
X981478Y967815*
X981299Y967938*
X980941*
X980762Y967815*
X980583Y967569*
X980494Y967323*
X980404Y966954*
Y966339*
X980494Y965969*
X980583Y965723*
X980762Y965477*
X980941Y965354*
X981299*
X981478Y965477*
X981657Y965723*
X981747Y965969*
X1002756Y976206D02*
Y973622D01*
X1004009Y976206D02*
Y973622D01*
X1002756Y974975D02*
X1004009D01*
X1004814Y976206D02*
Y973622D01*
Y976206D02*
X1005977D01*
X1004814Y974975D02*
X1005530D01*
X1004814Y973622D02*
X1005977D01*
X1007498Y976206D02*
X1006782Y973622D01*
X1007498Y976206D02*
X1008214Y973622D01*
X1007051Y974483D02*
X1007946D01*
X1009646Y976206D02*
Y973622D01*
X1009019Y976206D02*
X1010272D01*
X1011077Y973130D02*
X1012956D01*
X1013493Y976206D02*
Y973622D01*
Y976206D02*
X1014298D01*
X1014567Y976083*
X1014656Y975960*
X1014746Y975714*
Y975344*
X1014656Y975098*
X1014567Y974975*
X1014298Y974852*
X1013493*
X1002756Y979749D02*
Y977165D01*
X1004009Y979749D02*
Y977165D01*
X1002756Y978519D02*
X1004009D01*
X1004814Y979749D02*
Y977165D01*
Y979749D02*
X1005977D01*
X1004814Y978519D02*
X1005530D01*
X1004814Y977165D02*
X1005977D01*
X1007498Y979749D02*
X1006782Y977165D01*
X1007498Y979749D02*
X1008214Y977165D01*
X1007051Y978027D02*
X1007946D01*
X1009646Y979749D02*
Y977165D01*
X1009019Y979749D02*
X1010272D01*
X1011077Y976673D02*
X1012956D01*
X1014209Y979749D02*
X1013493Y977165D01*
X1014209Y979749D02*
X1014925Y977165D01*
X1013762Y978027D02*
X1014656D01*
X1001575Y983292D02*
Y980709D01*
Y983292D02*
X1002738D01*
X1001575Y982062D02*
X1002291D01*
X1001575Y980709D02*
X1002738D01*
X1003543Y983292D02*
Y980709D01*
Y983292D02*
X1004259Y980709D01*
X1004975Y983292D02*
X1004259Y980709D01*
X1004975Y983292D02*
Y980709D01*
X1007033Y982923D02*
X1006854Y983169D01*
X1006586Y983292*
X1006228*
X1005959Y983169*
X1005780Y982923*
Y982677*
X1005870Y982431*
X1005959Y982308*
X1006138Y982185*
X1006675Y981939*
X1006854Y981816*
X1006943Y981693*
X1007033Y981447*
Y981078*
X1006854Y980832*
X1006586Y980709*
X1006228*
X1005959Y980832*
X1005780Y981078*
X1007838Y980217D02*
X1009717D01*
X1010254Y983292D02*
Y980709D01*
Y983292D02*
X1011059D01*
X1011328Y983169*
X1011417Y983046*
X1011507Y982800*
Y982554*
X1011417Y982308*
X1011328Y982185*
X1011059Y982062*
X1010254D02*
X1011059D01*
X1011328Y981939*
X1011417Y981816*
X1011507Y981570*
Y981201*
X1011417Y980955*
X1011328Y980832*
X1011059Y980709*
X1010254*
X995276Y988804D02*
Y986220D01*
Y988804D02*
X996081D01*
X996349Y988681*
X996439Y988558*
X996528Y988312*
Y988066*
X996439Y987820*
X996349Y987697*
X996081Y987574*
X995276D02*
X996081D01*
X996349Y987451*
X996439Y987328*
X996528Y987082*
Y986713*
X996439Y986467*
X996349Y986344*
X996081Y986220*
X995276*
X997870Y988804D02*
X997691Y988681D01*
X997513Y988435*
X997423Y988189*
X997334Y987820*
Y987205*
X997423Y986836*
X997513Y986590*
X997691Y986344*
X997870Y986220*
X998228*
X998407Y986344*
X998586Y986590*
X998676Y986836*
X998765Y987205*
Y987820*
X998676Y988189*
X998586Y988435*
X998407Y988681*
X998228Y988804*
X997870*
X1000823Y988435D02*
X1000644Y988681D01*
X1000376Y988804*
X1000018*
X999749Y988681*
X999571Y988435*
Y988189*
X999660Y987943*
X999749Y987820*
X999928Y987697*
X1000465Y987451*
X1000644Y987328*
X1000734Y987205*
X1000823Y986959*
Y986590*
X1000644Y986344*
X1000376Y986220*
X1000018*
X999749Y986344*
X999571Y986590*
X1002255Y988804D02*
Y986220D01*
X1001628Y988804D02*
X1002881D01*
X1003686Y985728D02*
X1005565D01*
X1006102Y988804D02*
Y986220D01*
Y988804D02*
X1006729D01*
X1006997Y988681*
X1007176Y988435*
X1007266Y988189*
X1007355Y987820*
Y987205*
X1007266Y986836*
X1007176Y986590*
X1006997Y986344*
X1006729Y986220*
X1006102*
X998031Y1008095D02*
Y1005512D01*
Y1008095D02*
X998837D01*
X999105Y1007972*
X999195Y1007849*
X999284Y1007603*
Y1007357*
X999195Y1007111*
X999105Y1006988*
X998837Y1006865*
X998031D02*
X998837D01*
X999105Y1006742*
X999195Y1006619*
X999284Y1006373*
Y1006004*
X999195Y1005758*
X999105Y1005635*
X998837Y1005512*
X998031*
X1000626Y1008095D02*
X1000447Y1007972D01*
X1000268Y1007726*
X1000179Y1007480*
X1000089Y1007111*
Y1006496*
X1000179Y1006127*
X1000268Y1005881*
X1000447Y1005635*
X1000626Y1005512*
X1000984*
X1001163Y1005635*
X1001342Y1005881*
X1001432Y1006127*
X1001521Y1006496*
Y1007111*
X1001432Y1007480*
X1001342Y1007726*
X1001163Y1007972*
X1000984Y1008095*
X1000626*
X1003579Y1007726D02*
X1003400Y1007972D01*
X1003132Y1008095*
X1002774*
X1002505Y1007972*
X1002326Y1007726*
Y1007480*
X1002416Y1007234*
X1002505Y1007111*
X1002684Y1006988*
X1003221Y1006742*
X1003400Y1006619*
X1003490Y1006496*
X1003579Y1006250*
Y1005881*
X1003400Y1005635*
X1003132Y1005512*
X1002774*
X1002505Y1005635*
X1002326Y1005881*
X1005011Y1008095D02*
Y1005512D01*
X1004384Y1008095D02*
X1005637D01*
X1006442Y1005020D02*
X1008321D01*
X1008858Y1008095D02*
Y1005512D01*
Y1008095D02*
X1010021D01*
X1008858Y1006865D02*
X1009574D01*
X1010827Y1008095D02*
Y1005512D01*
Y1008095D02*
X1011632D01*
X1011901Y1007972*
X1011901D02*
X1011990Y1007849D01*
X1012079Y1007603*
Y1007357*
X1011990Y1007111*
X1011901Y1006988*
X1011901D02*
X1011632Y1006865D01*
X1010827D02*
X1011632D01*
X1011901Y1006742*
X1011901D02*
X1011990Y1006619D01*
X1012079Y1006373*
Y1006004*
X1011990Y1005758*
X1011901Y1005635*
X1011901D02*
X1011632Y1005512D01*
X1010827*
X998031Y1011639D02*
Y1009055D01*
Y1011639D02*
X999195D01*
X998031Y1010408D02*
X998747D01*
X998031Y1009055D02*
X999195D01*
X1000000Y1011639D02*
Y1009055D01*
Y1011639D02*
X1000716Y1009055D01*
X1001432Y1011639D02*
X1000716Y1009055D01*
X1001432Y1011639D02*
Y1009055D01*
X1003490Y1011270D02*
X1003311Y1011516D01*
X1003042Y1011639*
X1002684*
X1002416Y1011516*
X1002237Y1011270*
Y1011024*
X1002326Y1010778*
X1002416Y1010655*
X1002595Y1010531*
X1003132Y1010285*
X1003311Y1010162*
X1003400Y1010039*
X1003490Y1009793*
Y1009424*
X1003311Y1009178*
X1003042Y1009055*
X1002684*
X1002416Y1009178*
X1002237Y1009424*
X1033465Y1008489D02*
Y1005906D01*
Y1008489D02*
X1034270D01*
X1034538Y1008366*
X1034628Y1008243*
X1034717Y1007997*
Y1007751*
X1034628Y1007505*
X1034538Y1007382*
X1034270Y1007259*
X1033465D02*
X1034270D01*
X1034538Y1007136*
X1034628Y1007013*
X1034717Y1006767*
Y1006398*
X1034628Y1006152*
X1034538Y1006029*
X1034270Y1005906*
X1033465*
X1036238Y1008489D02*
X1035523Y1005906D01*
X1036238Y1008489D02*
X1036954Y1005906D01*
X1035791Y1006767D02*
X1036686D01*
X1038386Y1008489D02*
Y1005906D01*
X1037759Y1008489D02*
X1039012D01*
X1014961Y1015576D02*
Y1012992D01*
Y1015576D02*
X1015766D01*
X1016034Y1015453*
X1016124Y1015330*
X1016213Y1015084*
Y1014838*
X1016124Y1014592*
X1016034Y1014469*
X1015766Y1014345*
X1014961D02*
X1015766D01*
X1016034Y1014222*
X1016124Y1014099*
X1016213Y1013853*
Y1013484*
X1016124Y1013238*
X1016034Y1013115*
X1015766Y1012992*
X1014961*
X1017734Y1015576D02*
X1017019Y1012992D01*
X1017734Y1015576D02*
X1018450Y1012992D01*
X1017287Y1013853D02*
X1018182D01*
X1019882Y1015576D02*
Y1012992D01*
X1019256Y1015576D02*
X1020508D01*
X1021314Y1012500D02*
X1023193D01*
X1024266Y1015576D02*
X1024087Y1015453D01*
X1023908Y1015207*
X1023819Y1014961*
X1023729Y1014592*
Y1013976*
X1023819Y1013607*
X1023908Y1013361*
X1024087Y1013115*
X1024266Y1012992*
X1024624*
X1024803Y1013115*
X1024982Y1013361*
X1025072Y1013607*
X1025161Y1013976*
Y1014592*
X1025072Y1014961*
X1024982Y1015207*
X1024803Y1015453*
X1024624Y1015576*
X1024266*
X1025966D02*
Y1013730D01*
X1026056Y1013361*
X1026235Y1013115*
X1026503Y1012992*
X1026682*
X1026951Y1013115*
X1027130Y1013361*
X1027219Y1013730*
Y1015576*
X1028651D02*
Y1012992D01*
X1028024Y1015576D02*
X1029277D01*
X1052523Y1041732D02*
X1052434Y1041978D01*
X1052255Y1042224*
X1052076Y1042347*
X1051718*
X1051539Y1042224*
X1051360Y1041978*
X1051271Y1041732*
X1051181Y1041363*
Y1040748*
X1051271Y1040379*
X1051360Y1040133*
X1051539Y1039887*
X1051718Y1039764*
X1052076*
X1052255Y1039887*
X1052434Y1040133*
X1052523Y1040379*
Y1040748*
X1052076D02*
X1052523D01*
X1053329Y1042347D02*
Y1039764D01*
Y1042347D02*
X1054581Y1039764D01*
Y1042347D02*
Y1039764D01*
X1055387Y1042347D02*
Y1039764D01*
Y1042347D02*
X1056013D01*
X1056281Y1042224*
X1056460Y1041978*
X1056550Y1041732*
X1056639Y1041363*
Y1040748*
X1056550Y1040379*
X1056460Y1040133*
X1056281Y1039887*
X1056013Y1039764*
X1055387*
X980315Y1040379D02*
Y1037795D01*
Y1040379D02*
X981478D01*
X980315Y1039149D02*
X981031D01*
X980315Y1037795D02*
X981478D01*
X982283Y1040379D02*
Y1037795D01*
Y1040379D02*
X982999Y1037795D01*
X983715Y1040379D02*
X982999Y1037795D01*
X983715Y1040379D02*
Y1037795D01*
X985773Y1040010D02*
X985594Y1040256D01*
X985326Y1040379*
X984968*
X984699Y1040256*
X984520Y1040010*
Y1039764*
X984610Y1039518*
X984699Y1039395*
X984878Y1039272*
X985415Y1039026*
X985594Y1038903*
X985684Y1038780*
X985773Y1038533*
Y1038164*
X985594Y1037918*
X985326Y1037795*
X984968*
X984699Y1037918*
X984520Y1038164*
X986578Y1037303D02*
X988457D01*
X988994Y1040379D02*
Y1037795D01*
Y1040379D02*
X989800D01*
X990068Y1040256*
X990157Y1040133*
X990247Y1039887*
Y1039641*
X990157Y1039395*
X990068Y1039272*
X989800Y1039149*
X988994D02*
X989800D01*
X990068Y1039026*
X990157Y1038903*
X990247Y1038656*
Y1038287*
X990157Y1038041*
X990068Y1037918*
X989800Y1037795*
X988994*
X991589Y1040379D02*
X991410Y1040256D01*
X991231Y1040010*
X991142Y1039764*
X991052Y1039395*
Y1038780*
X991142Y1038410*
X991231Y1038164*
X991410Y1037918*
X991589Y1037795*
X991947*
X992126Y1037918*
X992305Y1038164*
X992394Y1038410*
X992484Y1038780*
Y1039395*
X992394Y1039764*
X992305Y1040010*
X992126Y1040256*
X991947Y1040379*
X991589*
X993826D02*
X993647Y1040256D01*
X993468Y1040010*
X993379Y1039764*
X993289Y1039395*
Y1038780*
X993379Y1038410*
X993468Y1038164*
X993647Y1037918*
X993826Y1037795*
X994184*
X994363Y1037918*
X994542Y1038164*
X994631Y1038410*
X994721Y1038780*
Y1039395*
X994631Y1039764*
X994542Y1040010*
X994363Y1040256*
X994184Y1040379*
X993826*
X996779Y1040010D02*
X996600Y1040256D01*
X996331Y1040379*
X995974*
X995705Y1040256*
X995526Y1040010*
Y1039764*
X995616Y1039518*
X995705Y1039395*
X995884Y1039272*
X996421Y1039026*
X996600Y1038903*
X996689Y1038780*
X996779Y1038533*
Y1038164*
X996600Y1037918*
X996331Y1037795*
X995974*
X995705Y1037918*
X995526Y1038164*
X998210Y1040379D02*
Y1037795D01*
X997584Y1040379D02*
X998837D01*
X954897Y1022835D02*
X957480D01*
X954897D02*
Y1023998D01*
X956127Y1022835D02*
Y1023550D01*
X957480Y1022835D02*
Y1023998D01*
X954897Y1024803D02*
X957480D01*
X954897D02*
X957480Y1025519D01*
X954897Y1026235D02*
X957480Y1025519D01*
X954897Y1026235D02*
X957480D01*
X955266Y1028293D02*
X955020Y1028114D01*
X954897Y1027845*
Y1027487*
X955020Y1027219*
X955266Y1027040*
X955512*
X955758Y1027130*
X955881Y1027219*
X956004Y1027398*
X956250Y1027935*
X956373Y1028114*
X956496Y1028203*
X956742Y1028293*
X957111*
X957357Y1028114*
X957480Y1027845*
Y1027487*
X957357Y1027219*
X957111Y1027040*
X957972Y1029098D02*
Y1030977D01*
X954897Y1031514D02*
X957480D01*
X954897D02*
Y1032319D01*
X955020Y1032588*
X955143Y1032677*
X955389Y1032767*
X955635*
X955881Y1032677*
X956004Y1032588*
X956127Y1032319*
Y1031514D02*
Y1032319D01*
X956250Y1032588*
X956373Y1032677*
X956619Y1032767*
X956988*
X957234Y1032677*
X957357Y1032588*
X957480Y1032319*
Y1031514*
X959621Y1022835D02*
X962205D01*
X959621D02*
Y1023998D01*
X960851Y1022835D02*
Y1023550D01*
X962205Y1022835D02*
Y1023998D01*
X959621Y1024803D02*
X962205D01*
X959621D02*
X962205Y1025519D01*
X959621Y1026235D02*
X962205Y1025519D01*
X959621Y1026235D02*
X962205D01*
X959990Y1028293D02*
X959744Y1028114D01*
X959621Y1027845*
Y1027487*
X959744Y1027219*
X959990Y1027040*
X960236*
X960482Y1027130*
X960605Y1027219*
X960728Y1027398*
X960974Y1027935*
X961097Y1028114*
X961220Y1028203*
X961467Y1028293*
X961836*
X962082Y1028114*
X962205Y1027845*
Y1027487*
X962082Y1027219*
X961836Y1027040*
X962697Y1029098D02*
Y1030977D01*
X959621Y1032230D02*
X962205Y1031514D01*
X959621Y1032230D02*
X962205Y1032946D01*
X961344Y1031782D02*
Y1032677D01*
X965748Y903765D02*
Y901181D01*
Y903765D02*
X966464Y901181D01*
X967180Y903765D02*
X966464Y901181D01*
X967180Y903765D02*
Y901181D01*
X968522Y903765D02*
X968343Y903642D01*
X968164Y903396*
X968074Y903150*
X967985Y902781*
Y902165*
X968074Y901796*
X968164Y901550*
X968343Y901304*
X968522Y901181*
X968880*
X969059Y901304*
X969238Y901550*
X969327Y901796*
X969417Y902165*
Y902781*
X969327Y903150*
X969238Y903396*
X969059Y903642*
X968880Y903765*
X968522*
X970848D02*
Y901181D01*
X970222Y903765D02*
X971475D01*
X972817D02*
X972638Y903642D01*
X972459Y903396*
X972369Y903150*
X972280Y902781*
Y902165*
X972369Y901796*
X972459Y901550*
X972638Y901304*
X972817Y901181*
X973175*
X973354Y901304*
X973533Y901550*
X973622Y901796*
X973712Y902165*
Y902781*
X973622Y903150*
X973533Y903396*
X973354Y903642*
X973175Y903765*
X972817*
X974517D02*
Y901181D01*
Y903765D02*
X975322D01*
X975591Y903642*
X975680Y903519*
X975770Y903273*
Y903027*
X975680Y902781*
X975591Y902657*
X975322Y902534*
X974517*
X975143D02*
X975770Y901181D01*
X976575Y900689D02*
X978454D01*
X978991Y903765D02*
Y901181D01*
Y903765D02*
X979796D01*
X980064Y903642*
X980154Y903519*
X980243Y903273*
Y902904*
X980154Y902657*
X980064Y902534*
X979796Y902411*
X978991*
X959055Y939985D02*
Y937402D01*
Y939985D02*
X959771Y937402D01*
X960487Y939985D02*
X959771Y937402D01*
X960487Y939985D02*
Y937402D01*
X961829Y939985D02*
X961650Y939862D01*
X961471Y939616*
X961382Y939370*
X961292Y939001*
Y938386*
X961382Y938017*
X961471Y937771*
X961650Y937525*
X961829Y937402*
X962187*
X962366Y937525*
X962545Y937771*
X962634Y938017*
X962724Y938386*
Y939001*
X962634Y939370*
X962545Y939616*
X962366Y939862*
X962187Y939985*
X961829*
X964155D02*
Y937402D01*
X963529Y939985D02*
X964782D01*
X966124D02*
X965945Y939862D01*
X965766Y939616*
X965676Y939370*
X965587Y939001*
Y938386*
X965676Y938017*
X965766Y937771*
X965945Y937525*
X966124Y937402*
X966482*
X966661Y937525*
X966840Y937771*
X966929Y938017*
X967019Y938386*
Y939001*
X966929Y939370*
X966840Y939616*
X966661Y939862*
X966482Y939985*
X966124*
X967824D02*
Y937402D01*
Y939985D02*
X968629D01*
X968898Y939862*
X968987Y939739*
X969077Y939493*
Y939247*
X968987Y939001*
X968898Y938878*
X968629Y938755*
X967824*
X968450D02*
X969077Y937402D01*
X959055Y936442D02*
Y933858D01*
Y936442D02*
X959860D01*
X960129Y936319*
X960218Y936196*
X960308Y935950*
Y935704*
X960218Y935458*
X960129Y935335*
X959860Y935212*
X959055D02*
X959860D01*
X960129Y935089*
X960218Y934966*
X960308Y934719*
Y934350*
X960218Y934104*
X960129Y933981*
X959860Y933858*
X959055*
X961113Y936442D02*
Y934596D01*
X961203Y934227*
X961382Y933981*
X961650Y933858*
X961829*
X962097Y933981*
X962276Y934227*
X962366Y934596*
Y936442*
X964513Y935827D02*
X964424Y936073D01*
X964245Y936319*
X964066Y936442*
X963708*
X963529Y936319*
X963350Y936073*
X963261Y935827*
X963171Y935458*
Y934843*
X963261Y934473*
X963350Y934227*
X963529Y933981*
X963708Y933858*
X964066*
X964245Y933981*
X964424Y934227*
X964513Y934473*
X965319Y936442D02*
Y933858D01*
X966571Y936442D02*
X965319Y934719D01*
X965766Y935335D02*
X966571Y933858D01*
X1033885Y1019070D02*
Y1015748D01*
X1032677Y1017409D02*
X1035093D01*
X1050000Y1017237D02*
X1047584D01*
X1048846Y966314D02*
Y962992D01*
X1047638Y964653D02*
X1050054D01*
X1032677Y965047D02*
X1035093D01*
X991117Y1022835D02*
X993701D01*
X991117D02*
X993701Y1024087D01*
X991117D02*
X993701D01*
X991117Y1025519D02*
X993701D01*
X991117Y1024893D02*
Y1026145D01*
X991732Y1028293D02*
X991486Y1028203D01*
X991240Y1028024*
X991117Y1027845*
Y1027487*
X991240Y1027309*
X991486Y1027130*
X991732Y1027040*
X992101Y1026951*
X992717*
X993086Y1027040*
X993332Y1027130*
X993578Y1027309*
X993701Y1027487*
Y1027845*
X993578Y1028024*
X993332Y1028203*
X993086Y1028293*
X996235Y1022835D02*
X998819D01*
X996235D02*
X998819Y1024087D01*
X996235D02*
X998819D01*
X996235Y1025519D02*
X998819D01*
X996235Y1024893D02*
Y1026145D01*
X996850Y1028293D02*
X996604Y1028203D01*
X996358Y1028024*
X996235Y1027845*
Y1027487*
X996358Y1027309*
X996604Y1027130*
X996850Y1027040*
X997219Y1026951*
X997835*
X998204Y1027040*
X998450Y1027130*
X998696Y1027309*
X998819Y1027487*
Y1027845*
X998696Y1028024*
X998450Y1028203*
X998204Y1028293*
X1001353Y1022835D02*
X1003937D01*
X1001353Y1024087D02*
X1003937D01*
X1002584Y1022835D02*
Y1024087D01*
X1001353Y1024893D02*
X1003937D01*
X1001353D02*
Y1026056D01*
X1002584Y1024893D02*
Y1025608D01*
X1003937Y1024893D02*
Y1026056D01*
X1001353Y1027577D02*
X1003937Y1026861D01*
X1001353Y1027577D02*
X1003937Y1028293D01*
X1003076Y1027130D02*
Y1028024D01*
X1001353Y1029724D02*
X1003937D01*
X1001353Y1029098D02*
Y1030351D01*
X1006078Y1022835D02*
X1008661D01*
X1006078Y1024087D02*
X1008661D01*
X1007308Y1022835D02*
Y1024087D01*
X1006078Y1024893D02*
X1008661D01*
X1006078D02*
Y1026056D01*
X1007308Y1024893D02*
Y1025608D01*
X1008661Y1024893D02*
Y1026056D01*
X1006078Y1027577D02*
X1008661Y1026861D01*
X1006078Y1027577D02*
X1008661Y1028293D01*
X1007800Y1027130D02*
Y1028024D01*
X1006078Y1029724D02*
X1008661D01*
X1006078Y1029098D02*
Y1030351D01*
X1037574Y1022835D02*
X1040157D01*
X1037574D02*
Y1023640D01*
X1037697Y1023908*
X1037820Y1023998*
X1038066Y1024087*
X1038312*
X1038558Y1023998*
X1038681Y1023908*
X1038804Y1023640*
Y1022835D02*
Y1023640D01*
X1038927Y1023908*
X1039050Y1023998*
X1039296Y1024087*
X1039665*
X1039911Y1023998*
X1040034Y1023908*
X1040157Y1023640*
Y1022835*
X1037574Y1025608D02*
X1040157Y1024893D01*
X1037574Y1025608D02*
X1040157Y1026324D01*
X1039296Y1025161D02*
Y1026056D01*
X1037574Y1027756D02*
X1040157D01*
X1037574Y1027130D02*
Y1028382D01*
X1042913Y1024177D02*
X1042667Y1024087D01*
X1042421Y1023908*
X1042298Y1023729*
Y1023372*
X1042421Y1023193*
X1042667Y1023014*
X1042913Y1022924*
X1043282Y1022835*
X1043898*
X1044267Y1022924*
X1044513Y1023014*
X1044759Y1023193*
X1044882Y1023372*
Y1023729*
X1044759Y1023908*
X1044513Y1024087*
X1044267Y1024177*
X1043898*
Y1023729D02*
Y1024177D01*
X1042298Y1024982D02*
X1044882D01*
X1042298D02*
X1044882Y1026235D01*
X1042298D02*
X1044882D01*
X1042298Y1027040D02*
X1044882D01*
X1042298D02*
Y1027666D01*
X1042421Y1027935*
X1042667Y1028114*
X1042913Y1028203*
X1043282Y1028293*
X1043898*
X1044267Y1028203*
X1044513Y1028114*
X1044759Y1027935*
X1044882Y1027666*
Y1027040*
X1039370Y958107D02*
X1039616Y958196D01*
X1039862Y958375*
X1039985Y958554*
Y958912*
X1039862Y959091*
X1039616Y959270*
X1039370Y959359*
X1039001Y959449*
X1038386*
X1038017Y959359*
X1037771Y959270*
X1037525Y959091*
X1037402Y958912*
Y958554*
X1037525Y958375*
X1037771Y958196*
X1038017Y958107*
X1038386*
Y958554D02*
Y958107D01*
X1039985Y957301D02*
X1037402D01*
X1039985D02*
X1037402Y956049D01*
X1039985D02*
X1037402D01*
X1039985Y955243D02*
X1037402D01*
X1039985D02*
Y954617D01*
X1039862Y954349*
X1039616Y954170*
X1039370Y954080*
X1039001Y953991*
X1038386*
X1038017Y954080*
X1037771Y954170*
X1037525Y954349*
X1037402Y954617*
Y955243*
X1044710Y959055D02*
X1042864D01*
X1042495Y958966*
X1042249Y958787*
X1042126Y958518*
Y958339*
X1042249Y958071*
X1042495Y957892*
X1042864Y957802*
X1044710*
X1044341Y955744D02*
X1044587Y955923D01*
X1044710Y956192*
Y956550*
X1044587Y956818*
X1044341Y956997*
X1044094*
X1043848Y956908*
X1043725Y956818*
X1043602Y956639*
X1043356Y956102*
X1043233Y955923*
X1043110Y955834*
X1042864Y955744*
X1042495*
X1042249Y955923*
X1042126Y956192*
Y956550*
X1042249Y956818*
X1042495Y956997*
X1044710Y954939D02*
X1042126D01*
X1044710D02*
Y954134D01*
X1044587Y953865*
X1044464Y953776*
X1044218Y953686*
X1043971*
X1043725Y953776*
X1043602Y953865*
X1043479Y954134*
Y954939D02*
Y954134D01*
X1043356Y953865*
X1043233Y953776*
X1042987Y953686*
X1042618*
X1042372Y953776*
X1042249Y953865*
X1042126Y954134*
Y954939*
X1062945Y1043906D02*
Y849063D01*
X1050946Y812066D02*
G03X1062945Y849106I-51169J37040D01*
G01X1050909Y812016D02*
X1024382D01*
Y804902*
X975563*
Y812012*
X949020*
X936965Y849083D02*
G03X949002Y812036I62692J-109D01*
G01X936965Y849035D02*
Y1043906D01*
X1062945*
X1054921Y990157D02*
G03X1054921I-2165J0D01*
G01X1004331Y1000000D02*
G03X1004331I-4331J0D01*
G01X949409Y990157D02*
G03X949409I-2165J0D01*
G01X1014961Y894331D02*
G03X1014961I-14961J0D01*
G01X1008071Y819528D02*
G03X1008071I-8071J0D01*
G54D137*
G54D138*
G01X981195Y920472D02*
G03X981195I-880J0D01*
G54D262*
G01X977559Y870743D02*
Y862992D01*
X981317Y870743D02*
X977559Y865576D01*
X978901Y867421D02*
X981317Y862992D01*
X987223Y870743D02*
X984538D01*
X984270Y867421*
X984538Y867790*
X985344Y868159*
X986149*
X986954Y867790*
X987491Y867052*
X987759Y865945*
X987491Y865207*
X987223Y864099*
X986686Y863361*
X985880Y862992*
X985075*
X984270Y863361*
X984001Y863730*
X983733Y864469*
X990175Y869267D02*
X990712Y869636D01*
X991518Y870743*
Y862992*
X1000107Y870743D02*
Y862992D01*
Y870743D02*
X1002523D01*
X1003329Y870374*
X1003597Y870005*
X1003865Y869267*
Y868529*
X1003597Y867790*
X1003329Y867421*
X1002523Y867052*
X1000107*
X1001986D02*
X1003865Y862992D01*
X1006281Y870743D02*
Y862992D01*
Y870743D02*
X1009771D01*
X1006281Y867052D02*
X1008429D01*
X1006281Y862992D02*
X1009771D01*
X1012187Y870743D02*
X1014334Y862992D01*
X1016482Y870743D02*
X1014334Y862992D01*
X1019166Y868898D02*
Y869267D01*
X1019435Y870005*
X1019435D02*
X1019703Y870374D01*
X1020240Y870743*
X1021314*
X1021850Y870374*
X1022119Y870005*
X1022387Y869267*
Y868529*
X1022119Y867790*
X1021582Y866683*
X1018898Y862992*
X1022656*
G74*
X0Y0D02*
M02*
